<?xml version="1.0" encoding="UTF-8" standalone="no"?>
<svg
   xmlns:dc="http://purl.org/dc/elements/1.1/"
   xmlns:cc="http://creativecommons.org/ns#"
   xmlns:rdf="http://www.w3.org/1999/02/22-rdf-syntax-ns#"
   xmlns:svg="http://www.w3.org/2000/svg"
   xmlns="http://www.w3.org/2000/svg"
   xmlns:sodipodi="http://sodipodi.sourceforge.net/DTD/sodipodi-0.dtd"
   xmlns:inkscape="http://www.inkscape.org/namespaces/inkscape"
   version="1.0"
   id="Layer_1"
   x="0px"
   y="0px"
   viewBox="0 0 261 131"
   xml:space="preserve"
   sodipodi:docname="dice-organization.inkscape.svg"
   inkscape:export-filename="/home/adi/Downloads/dice.png"
   inkscape:export-xdpi="96"
   inkscape:export-ydpi="96"
   width="261"
   height="131"
   inkscape:version="1.0.2 (1.0.2+r75+1)"><metadata
   id="metadata81"><rdf:RDF><cc:Work
       rdf:about=""><dc:format>image/svg+xml</dc:format><dc:type
         rdf:resource="http://purl.org/dc/dcmitype/StillImage" /><dc:title /></cc:Work></rdf:RDF></metadata><defs
   id="defs79">
	
	
	
	

	
	
	
	
	
	
	
	
	
	
	
	
	
	
	
	
	
	
	
	
	
	
	
	
	
	
	
	
	
	
</defs><sodipodi:namedview
   pagecolor="#333333"
   bordercolor="#666666"
   borderopacity="1"
   objecttolerance="10"
   gridtolerance="10"
   guidetolerance="10"
   inkscape:pageopacity="0"
   inkscape:pageshadow="2"
   inkscape:window-width="1920"
   inkscape:window-height="1116"
   id="namedview77"
   showgrid="false"
   lock-margins="true"
   inkscape:snap-bbox="true"
   inkscape:bbox-paths="true"
   inkscape:bbox-nodes="true"
   inkscape:snap-bbox-edge-midpoints="true"
   inkscape:snap-bbox-midpoints="true"
   inkscape:showpageshadow="false"
   showborder="true"
   inkscape:snap-global="true"
   inkscape:zoom="4"
   inkscape:cx="134.44693"
   inkscape:cy="106.5715"
   inkscape:window-x="0"
   inkscape:window-y="28"
   inkscape:window-maximized="1"
   inkscape:current-layer="layer3"
   inkscape:pagecheckerboard="true"
   showguides="true"
   inkscape:guide-bbox="true"
   fit-margin-top="26"
   fit-margin-left="26"
   fit-margin-right="26"
   fit-margin-bottom="26"
   inkscape:document-rotation="0" />
<style
   type="text/css"
   id="style2">
	.st0{fill:#3A78B8;}
	.st1{fill:#FFFFFF;}
</style>


<g
   inkscape:groupmode="layer"
   id="layer3"
   inkscape:label="logo"><g
     id="g1097"
     transform="matrix(0.66016376,0,0,0.66016376,40.155901,21.189751)"><g
       id="g12"
       transform="matrix(0.11140679,0,0,0.11140679,28.292189,24.212816)"><path
         class="st0"
         d="m 1094.74,414.9 c -0.04,-1.87 0.07,-3.75 -0.02,-5.61 -0.29,-6.17 -0.38,-12.37 -1.03,-18.5 -0.8,-7.42 -1.76,-14.83 -3.26,-22.17 -4.09,-20.06 -11.25,-38.88 -22.29,-56.19 -14.28,-22.37 -33.44,-39.28 -57.01,-51.33 -17.05,-8.71 -35.11,-14.3 -53.87,-17.76 -6.35,-1.17 -12.77,-1.99 -19.18,-2.78 -5.41,-0.66 -10.85,-1.33 -16.3,-1.52 -8.91,-0.32 -17.83,-0.32 -26.75,-0.32 -5.89,0 -11.79,0.11 -17.68,0.42 -6.17,0.33 -12.32,0.96 -18.47,1.47 -4.16,0.35 -8.33,0.56 -12.45,1.11 -10.4,1.38 -20.75,3.1 -30.87,5.94 -5.39,1.51 -10.74,3.21 -16.03,5.02 -3.97,1.36 -7.54,3.56 -10.86,6.13 -4.49,3.46 -7.45,7.84 -8.48,13.55 -0.49,2.72 -0.63,5.42 -0.63,8.15 v 257.21 c 0,1.72 -0.06,3.45 0.04,5.17 0.31,5.5 1.31,10.83 3.72,15.85 3.82,7.94 9.89,13.69 17.51,17.89 6.96,3.84 14.42,6.5 22.08,8.53 14.89,3.96 30.14,6.02 45.42,7.7 8.42,0.92 16.9,1.49 25.37,1.71 14.52,0.38 29.02,0.19 43.5,-1.39 10.88,-1.19 21.65,-2.85 32.27,-5.46 20.97,-5.15 40.72,-13.16 58.53,-25.61 11.99,-8.38 22.58,-18.22 31.62,-29.75 14.15,-18.06 23.51,-38.42 29.05,-60.6 2.15,-8.65 3.57,-17.44 4.52,-26.31 1.09,-10.16 1.74,-20.33 1.55,-30.55 z m -99.61,16.59 c -0.92,15.89 -4.44,31.24 -11.93,45.52 -9.23,17.57 -23.36,29.28 -42.13,35.38 -8.08,2.62 -16.39,4.29 -24.94,4.56 -2.86,0.09 -5.74,0.59 -8.59,0.48 -6.03,-0.24 -12.04,-0.72 -18.05,-1.2 -3.15,-0.25 -6.29,-0.65 -9.41,-1.1 -1.39,-0.2 -2.74,-0.69 -4.16,-1.06 -0.18,-1.24 -0.38,-2.21 -0.44,-3.19 -0.07,-1.15 -0.03,-2.3 -0.03,-3.45 0,-60.69 0,-121.38 0.01,-182.06 0,-2 0.08,-4 0.13,-6.41 1.28,-0.49 2.18,-1.03 3.13,-1.15 3.28,-0.43 6.58,-0.65 9.85,-1.06 8.02,-0.99 16.08,-1.06 24.12,-0.8 15.63,0.52 30.42,4.22 43.74,12.73 13.09,8.36 22.73,19.72 29.06,33.89 5.1,11.39 7.67,23.4 9.1,35.76 1.28,11.05 1.18,22.14 0.54,33.16 z"
         id="path4" /><path
         class="st0"
         d="m 1889.79,555.92 c -0.13,4.07 -1,7.97 -2.22,11.82 -4.07,12.79 -15.33,18.65 -25.09,19.27 -1.86,0.12 -3.74,0.17 -5.6,0.17 -54.52,0.01 -109.03,-0.01 -163.54,0.03 -6.81,0 -13.51,-0.62 -19.94,-2.94 -15.41,-5.57 -24.92,-16.52 -28.92,-32.28 -1.34,-5.29 -1.82,-10.73 -1.82,-16.23 0.06,-39.41 0.03,-78.82 0.03,-118.23 0,-39.56 0.01,-79.11 -0.01,-118.66 0,-6.23 0.68,-12.37 2.58,-18.28 5.49,-17.13 17.25,-27.37 34.72,-31.26 4.95,-1.1 9.98,-1.14 15.01,-1.14 51.78,-0.01 103.56,-0.01 155.34,-0.01 7.33,0 14.67,0 22.01,0.01 1,0 2.01,0.05 3.01,0 2.3,-0.12 3.76,0.92 4.75,2.97 2.65,5.46 4.76,11.11 6.06,17.03 1.9,8.62 2.37,17.32 1.22,26.12 -0.6,4.61 -1.57,9.04 -3.55,13.25 -2.14,4.59 -5.45,8.07 -9.72,10.69 -4.76,2.91 -9.91,4.53 -15.51,4.63 -1.87,0.03 -3.74,0.03 -5.61,0.03 -36.39,0.01 -72.78,0 -109.17,0.01 -1.58,0 -3.17,-0.02 -4.74,0.14 -1.76,0.18 -2.57,1.01 -2.79,2.75 -0.14,1.13 -0.14,2.29 -0.14,3.44 v 41.42 c 0,1.01 -0.01,2.02 0.1,3.02 0.23,2.2 1.02,2.98 3.32,3.17 1.58,0.12 3.16,0.08 4.75,0.08 36.67,0.01 73.35,0 110.03,0 1.15,0 2.3,0 3.45,0.01 4.66,0.04 5.1,-0.62 7.5,4.73 2.6,5.78 4.78,11.73 5.83,18.01 1.16,6.96 1.75,13.94 0.79,21.02 -0.54,3.99 -1.02,7.96 -2.3,11.81 -3.39,10.11 -10.64,15.73 -20.8,17.97 -3.52,0.78 -7.1,0.95 -10.71,0.95 -31.5,-0.04 -63,-0.03 -94.5,-0.02 -1.58,0 -3.16,-0.02 -4.74,0.09 -1.59,0.12 -2.32,0.85 -2.56,2.41 -0.13,0.85 -0.15,1.72 -0.15,2.58 -0.01,16.69 -0.01,33.37 -0.01,50.05 0,0.72 0.01,1.45 0.09,2.16 0.24,2.08 0.93,2.79 3,2.92 1.58,0.1 3.16,0.07 4.75,0.07 h 129.88 c 1.29,0 2.59,0.07 3.88,0 2.15,-0.12 3.54,0.89 4.41,2.78 0.3,0.65 0.66,1.28 0.95,1.93 2.96,6.59 5.29,13.4 6.29,20.55 0.88,6.28 0.59,12.63 0.39,18.96 z"
         id="path6" /><path
         class="st0"
         d="m 1588.73,547.25 c -1.26,7.82 -4.53,14.51 -9.66,20.34 -6.56,7.46 -14.59,12.97 -23.63,17.01 -9.5,4.25 -19.5,6.76 -29.76,8.45 -15.82,2.61 -31.75,2.94 -47.71,2.52 -25.06,-0.65 -49.42,-5.09 -72.75,-14.44 -27.22,-10.9 -49.75,-27.94 -66.86,-51.89 -14.1,-19.72 -23.14,-41.63 -27.79,-65.36 -1.37,-7.04 -2.3,-14.16 -3,-21.32 -0.41,-4.31 -0.6,-8.6 -0.79,-12.9 -0.12,-3.01 -0.46,-6.02 -0.55,-9.03 -0.08,-3.02 -0.01,-6.04 0.08,-9.05 0.05,-1.86 0.34,-3.72 0.38,-5.59 0.28,-14.56 2.13,-28.94 5.62,-43.06 3.6,-14.58 9.07,-28.48 16.32,-41.65 8.32,-15.1 18.68,-28.63 31.39,-40.33 11.19,-10.3 23.63,-18.74 37.31,-25.39 15.76,-7.66 32.35,-12.7 49.6,-15.53 6.51,-1.07 13.06,-1.98 19.7,-2.11 4.45,-0.09 8.89,-0.55 13.34,-0.62 9.34,-0.14 18.65,0.58 27.96,1.46 8.74,0.83 17.37,2.27 25.86,4.52 13.19,3.5 25.52,8.87 36.21,17.54 8.49,6.9 14.75,15.31 16.99,26.25 0.48,2.37 0.69,4.83 0.76,7.26 0.12,4.45 0.13,8.9 -0.95,13.29 -1.25,5.08 -3.26,9.79 -6.22,14.12 -3.44,5.04 -7.69,9.3 -12.29,13.24 -1.07,0.91 -2.33,1.59 -3.58,2.42 -4.05,-2.34 -7.85,-4.65 -11.75,-6.77 -9.48,-5.18 -19.2,-9.82 -29.73,-12.52 -7.81,-2 -15.73,-3.31 -23.85,-3.13 -4.17,0.09 -8.36,-0.17 -12.51,0.09 -16.2,1 -31.45,5.05 -44.97,14.46 -12.02,8.37 -20.52,19.6 -26.44,32.85 -4.31,9.63 -6.81,19.8 -8.35,30.23 -1.55,10.57 -2.05,21.19 -1.47,31.82 0.67,12.38 2.46,24.6 6.75,36.31 10.4,28.44 30.25,46.57 59.52,54.31 11.49,3.03 23.24,3.93 35.06,3.36 14.19,-0.67 27.92,-3.51 40.86,-9.6 5.98,-2.82 11.96,-5.64 17.94,-8.46 1.16,-0.54 2.33,-1.06 3.68,-1.67 0.96,0.69 1.96,1.25 2.77,2.02 8.5,8.06 14.13,17.79 15.94,29.4 0.88,5.64 1.51,11.31 0.57,17.15 z"
         id="path8" /><path
         class="st0"
         d="m 1248.62,576.43 c 0,1.72 -0.02,3.45 -0.1,5.17 -0.07,1.47 -0.84,2.41 -2.32,2.69 -2.97,0.56 -5.91,1.26 -8.9,1.65 -6.69,0.85 -13.36,1.94 -20.14,2.07 -4.02,0.08 -8.03,0.47 -12.05,0.58 -7.35,0.2 -14.63,-0.56 -21.88,-1.7 -4.72,-0.74 -9.23,-2.19 -13.46,-4.42 -5.24,-2.75 -9.3,-6.69 -12.05,-11.97 -1.61,-3.08 -2.84,-6.29 -3.53,-9.69 -1.17,-5.79 -1.78,-11.63 -1.78,-17.55 0.04,-50.2 0.02,-100.4 0.02,-150.59 0,-46.17 0,-92.34 0.01,-138.51 0,-1.86 0.06,-3.71 0.09,-5.7 2.04,-1.16 3.79,-1.34 5.46,-1.58 8.38,-1.22 16.78,-2.35 25.18,-3.45 1.7,-0.22 3.45,-0.18 5.17,-0.18 6.33,-0.01 12.67,-0.2 18.98,0.09 6.46,0.3 12.86,1.21 19.02,3.4 9.88,3.5 16.56,10.07 19.7,20.16 1.33,4.27 2.22,8.61 2.37,13.09 0.1,3.02 0.2,6.04 0.2,9.06 0.01,95.79 0.01,191.59 0.01,287.38 z"
         id="path10" /></g><g
       id="g74"
       transform="matrix(0.11140679,0,0,0.11140679,28.292189,24.212816)"><path
         class="st0"
         d="m 640.77,189.77 c -2.6,-3.11 -5.65,-5.72 -9.17,-7.77 -3.61,-2.09 -7.22,-4.17 -10.83,-6.27 C 591.56,158.75 562.34,141.78 533.14,124.79 511.51,112.2 489.92,99.57 468.3,86.99 437.72,69.19 407.1,51.5 376.59,33.59 c -6.14,-3.6 -12.71,-5.46 -19.6,-5.96 -7.3,-0.53 -14.65,-0.66 -21.94,0.62 -4.43,0.78 -8.64,2.02 -12.56,4.3 -8.07,4.7 -16.2,9.32 -24.3,13.98 -18.34,10.52 -36.67,21.03 -55,31.56 -18.33,10.53 -36.65,21.07 -54.97,31.6 -18.7,10.75 -37.4,21.5 -56.1,32.24 -16.46,9.45 -32.92,18.9 -49.39,28.34 -6.36,3.64 -12.73,7.28 -19.1,10.91 -3.28,1.88 -6.14,4.23 -8.47,7.24 -4.84,6.24 -4.66,16.15 1.43,21.61 1.6,1.43 3.26,2.86 5.1,3.93 16.79,9.74 33.62,19.4 50.46,29.06 16.58,9.53 33.18,19.02 49.77,28.54 16.45,9.45 32.9,18.93 49.35,28.38 22.7,13.04 45.4,26.05 68.1,39.08 12.22,7.01 24.45,14.01 36.65,21.06 10.05,5.81 20.76,9.09 30.96,8.75 5.81,-0.04 10.11,-0.15 14.36,-1.1 7.33,-1.65 14.36,-3.98 20.9,-7.82 17.36,-10.2 34.78,-20.27 52.19,-30.38 29.23,-16.96 58.47,-33.89 87.69,-50.85 27.98,-16.25 55.94,-32.52 83.91,-48.78 8.7,-5.06 17.42,-10.08 26.09,-15.19 3.88,-2.28 7.28,-5.12 9.69,-9.02 3.44,-5.57 3.15,-10.91 -1.04,-15.92 z m -152.48,6.64 c -1.58,3.27 -3.91,6.04 -6.93,8.12 -5.5,3.79 -11.49,6.49 -18.01,8.01 -6.21,1.44 -12.55,1.73 -18.85,1.71 -5.43,-0.02 -10.93,-0.59 -16.21,-2.08 -4.62,-1.32 -9.07,-0.87 -13.58,0.34 -5.71,1.53 -11.29,3.44 -16.63,5.95 -6.75,3.17 -12.32,7.88 -17.08,13.58 -0.45,0.54 -0.8,1.19 -1.2,1.78 -1.02,1.49 -1,2.95 0.12,4.37 1.71,2.2 2.64,4.75 3.49,7.36 0.97,2.99 0.94,5.94 0.07,8.91 -1.52,5.15 -4.44,9.21 -8.94,12.28 -8.83,6.02 -18.69,8.62 -29.19,9.3 -2.15,0.14 -4.31,0.24 -6.46,0.37 -8.58,0.13 -16.9,-1.46 -25.03,-3.97 -8.77,-2.71 -16.7,-6.96 -22.94,-13.91 -2.55,-2.84 -4.29,-6.12 -5.15,-9.83 -1.17,-5.07 -0.07,-9.69 2.88,-13.91 2.61,-3.72 5.88,-6.67 9.99,-8.67 1.42,-0.7 2.74,-1.61 4.19,-2.22 1.82,-0.77 2.54,-2.21 2.87,-3.99 0.05,-0.29 0.1,-0.57 0.11,-0.86 0.09,-7.18 -0.94,-13.97 -5.79,-19.77 -3.06,-3.67 -6.34,-7.04 -10.1,-9.98 -2.31,-1.82 -4.8,-2.83 -7.81,-3.19 -10.51,-1.23 -20.6,-3.97 -29.73,-9.56 -4.47,-2.74 -8.14,-6.36 -11.08,-10.7 -7,-10.35 -1.51,-20.88 5.11,-25.44 9.25,-6.36 19.5,-9.6 30.71,-10.05 10.88,-0.44 21.52,0.64 31.89,4.08 5.08,1.69 9.9,3.9 14.34,6.88 5.11,3.43 9.39,7.62 11.58,13.53 0.83,2.22 2.41,3.49 4.47,4.37 9.96,4.26 20.24,7.37 30.99,8.86 0.14,0.02 0.29,0.06 0.43,0.06 8.33,0.27 16.61,1.43 24.97,1.02 2.39,-0.12 4.46,-0.75 6.44,-2.09 9.22,-6.24 19.54,-8.75 30.54,-9.15 10.76,-0.39 21.24,0.91 31.37,4.6 5.71,2.08 11.05,5 15.85,8.64 4.86,3.71 8.52,8.49 9.79,14.78 0.75,3.72 0.1,7.19 -1.49,10.47 z"
         id="path14" /><path
         class="st1"
         d="m 489.78,185.94 c -1.27,-6.29 -4.93,-11.07 -9.79,-14.78 -4.8,-3.64 -10.14,-6.56 -15.85,-8.64 -10.13,-3.69 -20.61,-4.99 -31.37,-4.6 -11,0.4 -21.32,2.91 -30.54,9.15 -1.98,1.34 -4.05,1.97 -6.44,2.09 -8.36,0.41 -16.64,-0.75 -24.97,-1.02 -0.14,0 -0.29,-0.04 -0.43,-0.06 -10.75,-1.49 -21.03,-4.6 -30.99,-8.86 -2.06,-0.88 -3.64,-2.15 -4.47,-4.37 -2.19,-5.91 -6.47,-10.1 -11.58,-13.53 -4.44,-2.98 -9.26,-5.19 -14.34,-6.88 -10.37,-3.44 -21.01,-4.52 -31.89,-4.08 -11.21,0.45 -21.46,3.69 -30.71,10.05 -6.62,4.56 -12.11,15.09 -5.11,25.44 2.94,4.34 6.61,7.96 11.08,10.7 9.13,5.59 19.22,8.33 29.73,9.56 3.01,0.36 5.5,1.37 7.81,3.19 3.76,2.94 7.04,6.31 10.1,9.98 4.85,5.8 5.88,12.59 5.79,19.77 -0.01,0.29 -0.06,0.57 -0.11,0.86 -0.33,1.78 -1.05,3.22 -2.87,3.99 -1.45,0.61 -2.77,1.52 -4.19,2.22 -4.11,2 -7.38,4.95 -9.99,8.67 -2.95,4.22 -4.05,8.84 -2.88,13.91 0.86,3.71 2.6,6.99 5.15,9.83 6.24,6.95 14.17,11.2 22.94,13.91 8.13,2.51 16.45,4.1 25.03,3.97 2.15,-0.13 4.31,-0.23 6.46,-0.37 10.5,-0.68 20.36,-3.28 29.19,-9.3 4.5,-3.07 7.42,-7.13 8.94,-12.28 0.87,-2.97 0.9,-5.92 -0.07,-8.91 -0.85,-2.61 -1.78,-5.16 -3.49,-7.36 -1.12,-1.42 -1.14,-2.88 -0.12,-4.37 0.4,-0.59 0.75,-1.24 1.2,-1.78 4.76,-5.7 10.33,-10.41 17.08,-13.58 5.34,-2.51 10.92,-4.42 16.63,-5.95 4.51,-1.21 8.96,-1.66 13.58,-0.34 5.28,1.49 10.78,2.06 16.21,2.08 6.3,0.02 12.64,-0.27 18.85,-1.71 6.52,-1.52 12.51,-4.22 18.01,-8.01 3.02,-2.08 5.35,-4.85 6.93,-8.12 1.59,-3.28 2.24,-6.75 1.49,-10.47 z m -92.5,13.4 c -1.09,1.34 -2.04,2.81 -3.22,4.05 -4.11,4.28 -8.67,8 -14.05,10.58 -7.16,3.44 -14.64,5.95 -22.4,7.65 -2.01,0.43 -3.96,0.27 -5.98,-0.13 -4.22,-0.85 -8.47,-1.59 -12.73,-2.19 -1.77,-0.24 -3.35,-0.75 -4.79,-1.75 -5.24,-3.63 -10.12,-7.67 -13.52,-13.14 -3.5,-5.66 -4.87,-11.93 -4.5,-18.56 0.11,-2.05 1.16,-3.33 3.09,-4.25 2.71,-1.29 5.3,-2.88 7.82,-4.52 1.26,-0.81 2.51,-1.33 3.99,-1.43 2.86,-0.22 5.72,-0.48 8.88,-0.74 5.74,0.51 11.74,1.19 17.76,1.54 6.38,0.37 12.46,2.05 18.56,3.69 4.88,1.32 9.53,3.21 14.09,5.36 1.92,0.9 3.25,2.15 4.06,4.19 0.78,1.99 1.97,3.83 3.06,5.68 0.82,1.39 0.94,2.67 -0.12,3.97 z"
         id="path16" /><path
         class="st0"
         d="m 332.83,442 c -0.01,-4.6 -0.12,-9.18 -1.09,-13.72 -1.62,-7.54 -4.24,-14.65 -8.87,-20.87 -6.18,-8.3 -13.88,-14.92 -22.85,-20.07 -16.57,-9.53 -33.15,-19.05 -49.71,-28.61 C 233.25,348.89 216.22,339 199.17,329.14 179.38,317.7 159.58,306.28 139.8,294.84 124.36,285.92 108.93,277 93.51,268.05 82.08,261.41 70.66,254.74 59.26,248.03 c -3.01,-1.77 -6.21,-3.04 -9.63,-3.61 -6.02,-1.01 -11.17,0.46 -14.65,5.84 -1.73,2.69 -2.89,5.64 -3.04,8.88 -0.09,1.87 -0.1,3.74 -0.1,5.61 v 251.09 c 0,5.46 0.02,10.93 0,16.39 -0.02,3.34 0.39,6.6 1.4,9.78 3,9.43 7.72,17.93 14.05,25.53 2.41,2.89 5.24,5.29 8.55,7.15 5.76,3.25 11.44,6.64 17.16,9.96 20.76,12.05 41.54,24.07 62.3,36.13 27.1,15.75 54.17,31.54 81.26,47.29 26.59,15.46 53.2,30.9 79.81,46.34 3.36,1.94 6.71,3.92 10.17,5.66 4.27,2.16 8.79,3.6 13.67,3.29 1.26,-0.09 2.68,-0.23 3.72,-0.86 4.91,-2.95 8.37,-7 8.77,-13.02 0.15,-2.15 0.14,-4.31 0.14,-6.46 V 476.08 c 0,-11.36 0.02,-22.72 -0.01,-34.08 z M 219.86,408.79 c 0.02,-1.42 0.27,-2.86 0.62,-4.25 0.73,-2.94 2.68,-4.37 5.69,-4 1.38,0.17 2.83,0.65 4,1.38 4.48,2.81 7.24,6.88 8.21,12.09 0.88,4.69 0.54,9.44 0.47,14.17 -0.05,2.86 -0.3,5.72 -0.49,8.58 -0.04,0.55 -0.28,1.09 -0.57,2.21 -1.48,-0.55 -2.59,-0.82 -3.55,-1.35 -3.75,-2.11 -7.42,-4.35 -11.18,-6.45 -2.24,-1.25 -3.29,-3.05 -3.27,-5.59 0.04,-5.6 -0.01,-11.19 0.07,-16.79 z m -30.44,-20.12 c 0.01,-0.97 0.32,-1.98 0.7,-2.89 1.11,-2.67 3.5,-3.89 6.28,-3.08 1.35,0.39 2.69,1.05 3.82,1.88 4.93,3.63 7.49,8.6 7.8,14.67 0.16,3.15 0.03,6.31 0.03,9.47 h 0.01 c 0,2.58 0,5.17 -0.01,7.75 0,0.86 0.01,1.72 -0.07,2.58 -0.19,1.89 -1.23,2.49 -2.99,1.51 -4.5,-2.52 -8.95,-5.14 -13.41,-7.74 -1.48,-0.87 -2.22,-2.17 -2.21,-3.91 0.02,-6.75 -0.01,-13.49 0.05,-20.24 z m -30.92,-16.9 c 0.23,-6.76 5,-9.21 10.52,-5.34 4.93,3.45 7.89,8.25 8.09,14.43 0.11,3.3 0.02,6.6 0.02,9.89 0,3.01 0.01,6.02 -0.01,9.03 0,0.72 -0.06,1.44 -0.17,2.14 -0.14,0.93 -1,1.41 -1.93,1.11 -0.55,-0.18 -1.09,-0.39 -1.58,-0.67 -3.97,-2.3 -7.89,-4.68 -11.89,-6.91 -2.1,-1.17 -3.15,-2.78 -3.13,-5.19 0.04,-6.16 -0.13,-12.33 0.08,-18.49 z m -30.47,-19.4 c 0.11,-0.84 0.31,-1.71 0.65,-2.48 0.83,-1.85 2.28,-2.84 4.37,-2.93 1.95,-0.09 3.68,0.48 5.24,1.59 4.85,3.43 7.84,8.15 8.2,14 0.41,6.57 0.13,13.18 0.06,19.77 0,0.94 -0.46,1.87 -0.86,3.37 -1.59,-0.66 -2.68,-0.98 -3.65,-1.53 -3.74,-2.12 -7.42,-4.36 -11.18,-6.44 -2.08,-1.16 -3.16,-2.83 -3.22,-5.17 -0.16,-6.73 -0.47,-13.47 0.39,-20.18 z m -19.1,145.12 h -0.05 c 0,2.44 0.08,4.88 -0.02,7.31 -0.08,1.96 -1.06,2.5 -2.9,1.59 -1.8,-0.89 -3.51,-1.95 -5.25,-2.95 -4.1,-2.36 -8.2,-4.72 -12.29,-7.1 -4.26,-2.48 -7.15,-6.1 -8.92,-10.69 -0.8,-2.07 -0.97,-4.18 -0.68,-6.34 0.39,-2.93 2.34,-4.71 5.25,-4.53 1.38,0.08 2.88,0.45 4.07,1.13 6.12,3.45 12.14,7.09 18.23,10.58 1.82,1.05 2.67,2.45 2.58,4.54 -0.09,2.15 -0.02,4.31 -0.02,6.46 z m 0.03,-39.66 c -0.1,2.15 -0.02,4.31 -0.02,6.46 h -0.04 c 0,2.3 0.07,4.6 -0.03,6.89 -0.09,2.2 -1.08,2.69 -3.13,1.69 -0.65,-0.32 -1.26,-0.69 -1.88,-1.05 -5.34,-3.1 -10.65,-6.23 -16.01,-9.29 -4.36,-2.49 -7.08,-6.26 -8.51,-10.93 -0.53,-1.73 -0.67,-3.69 -0.51,-5.5 0.34,-3.6 3.32,-5.56 6.76,-4.62 1.24,0.34 2.46,0.85 3.57,1.49 5.72,3.28 11.38,6.69 17.13,9.93 2.03,1.14 2.78,2.7 2.67,4.93 z m -0.04,-20.54 c -0.01,0.82 -0.28,1.64 -0.41,2.34 -1.81,0.78 -2.98,-0.3 -4.18,-0.98 -4.37,-2.48 -8.7,-5.03 -13.03,-7.58 -1.74,-1.01 -3.55,-1.94 -5.14,-3.15 -4.31,-3.27 -7,-7.53 -7.44,-13.03 -0.07,-0.85 -0.02,-1.73 0.1,-2.58 0.42,-2.99 3.61,-5.44 6.67,-4.26 1.2,0.47 2.45,0.85 3.56,1.48 5.37,3.05 10.7,6.17 16.05,9.26 0.37,0.22 0.72,0.48 1.1,0.67 1.98,1.04 2.84,2.61 2.78,4.9 -0.12,4.3 -0.02,8.62 -0.06,12.93 z m 0,-33.77 c -0.01,0.95 -0.31,1.9 -0.53,3.15 -1.19,-0.29 -2.23,-0.32 -3.03,-0.78 -6.22,-3.59 -12.44,-7.18 -18.56,-10.94 -3.82,-2.35 -6.11,-6 -7.54,-10.2 -0.65,-1.93 -0.89,-3.92 -0.47,-5.95 0.64,-3.1 2.78,-4.72 5.91,-4.27 1.24,0.17 2.53,0.61 3.62,1.23 6,3.39 11.94,6.91 17.92,10.33 1.94,1.12 2.81,2.64 2.74,4.93 -0.12,4.16 0,8.33 -0.06,12.5 z m 37.97,170.79 c -0.39,3.62 -3.79,6.3 -7.86,4.65 -2.3,-0.93 -4.2,-2.42 -5.79,-4.32 -2.93,-3.52 -4.75,-7.52 -4.83,-12.14 -0.09,-6.02 -0.06,-12.03 -0.01,-18.05 0.01,-0.96 0.39,-1.92 0.71,-3.41 1.26,0.34 2.15,0.4 2.84,0.79 4.12,2.32 8.15,4.79 12.28,7.07 2.14,1.18 3.08,2.94 3.11,5.24 0.08,6.73 0.28,13.45 -0.45,20.17 z m 30.85,15.56 c 0,0.72 -0.06,1.44 -0.18,2.15 -0.81,4.42 -4.1,6.24 -8.31,4.53 -1.05,-0.43 -2.08,-1.03 -2.94,-1.76 -4.45,-3.82 -7.19,-8.52 -7.19,-14.56 0,-5.88 -0.02,-11.77 0.03,-17.66 0.01,-1.09 0.29,-2.18 0.54,-3.95 1.75,0.69 2.84,0.99 3.81,1.53 3.75,2.11 7.42,4.37 11.2,6.43 2.14,1.16 3.1,2.79 3.08,5.2 -0.06,6.03 -0.02,12.06 -0.04,18.09 z m 30.45,8.9 c 0,3.16 0.03,6.32 -0.02,9.48 -0.01,1 -0.07,2.04 -0.36,2.98 -0.87,2.83 -3.58,4.32 -6.43,3.6 -1.85,-0.46 -3.47,-1.35 -4.9,-2.61 -4.18,-3.71 -6.68,-8.34 -6.9,-13.9 -0.25,-6.03 -0.06,-12.08 -0.05,-18.11 0,-0.29 0.03,-0.58 0.06,-0.86 0.3,-2.47 1.25,-3.1 3.4,-1.92 4.41,2.42 8.73,4.99 13.1,7.49 1.53,0.87 2.14,2.18 2.12,3.93 -0.05,3.3 -0.02,6.61 -0.02,9.92 z m 30.86,26.68 c 0,0.99 -0.19,2 -0.46,2.96 -1,3.46 -3.42,4.89 -6.89,4.07 -0.82,-0.2 -1.67,-0.51 -2.37,-0.97 -5.24,-3.4 -8.61,-8.11 -8.88,-14.44 -0.27,-6.45 -0.07,-12.92 -0.02,-19.38 0,-0.95 0.32,-1.9 0.54,-3.08 1.05,0.18 1.97,0.11 2.64,0.49 4.25,2.4 8.43,4.93 12.67,7.35 1.94,1.1 2.86,2.66 2.84,4.9 -0.05,6.03 -0.01,12.07 -0.07,18.1 z m 12.79,-104.24 c -0.43,22.72 -0.44,45.44 -0.51,68.16 0,1.43 -0.05,2.91 -0.45,4.26 -0.91,3.07 -3.22,4.38 -6.33,3.59 -1.5,-0.38 -2.97,-1.07 -4.32,-1.85 -9.85,-5.67 -19.66,-11.4 -29.48,-17.11 -17.65,-10.26 -35.31,-20.51 -52.96,-30.77 -10.2,-5.93 -20.4,-11.84 -30.56,-17.82 -6.34,-3.72 -9.59,-9.26 -9.58,-16.7 0.02,-20.28 0.01,-40.56 0.01,-60.84 h 0.03 c 0,-20.14 0,-40.28 0.01,-60.42 0,-1.44 -0.07,-2.9 0.15,-4.31 0.6,-3.94 3.91,-5.85 7.65,-4.49 0.94,0.34 1.83,0.85 2.69,1.35 20.03,11.61 40.05,23.25 60.08,34.86 17.29,10.02 34.6,20.01 51.9,30.03 2.61,1.51 5.24,2.97 7.17,5.43 3.13,3.99 4.75,8.42 4.72,13.55 -0.12,17.69 0.12,35.39 -0.22,53.08 z m 37.41,81.05 c -0.23,4.07 -3.23,6.15 -7.19,5.05 -1.22,-0.34 -2.38,-0.99 -3.5,-1.64 -5.59,-3.21 -11.16,-6.49 -16.76,-9.71 -1.73,-1 -3.02,-2.31 -3,-4.39 0.05,-4.72 0.19,-9.45 0.34,-14.18 0.02,-0.54 0.31,-1.07 0.63,-2.16 1.31,0.45 2.31,0.63 3.13,1.1 5.61,3.21 11.2,6.45 16.77,9.72 4.52,2.66 7.67,6.46 9.07,11.55 0.41,1.49 0.6,3.11 0.51,4.66 z m 0.19,-32.75 c -0.81,4 -3.87,5.8 -7.65,4.41 -1.21,-0.45 -2.37,-1.04 -3.48,-1.68 -5.35,-3.08 -10.64,-6.25 -16.03,-9.25 -2.28,-1.27 -3.34,-2.93 -3.13,-5.55 0.15,-1.85 0.03,-3.73 0.03,-5.59 h 0.06 c 0,-2.44 -0.08,-4.89 0.02,-7.32 0.09,-2.15 1.14,-2.7 3.17,-1.7 1.41,0.7 2.76,1.53 4.12,2.32 4.6,2.65 9.19,5.32 13.79,7.96 4.19,2.4 6.86,6.03 8.45,10.49 0.68,1.9 1.06,3.87 0.65,5.91 z m -0.13,-32.34 c -0.91,2.83 -2.99,4.21 -5.92,3.74 -1.25,-0.2 -2.53,-0.64 -3.63,-1.27 -5.86,-3.32 -11.68,-6.74 -17.5,-10.13 -0.5,-0.29 -0.97,-0.62 -1.44,-0.95 -1.01,-0.7 -1.56,-1.68 -1.56,-2.91 0.02,-5.02 -0.01,-10.05 0.09,-15.07 0.04,-1.65 1.17,-2.18 2.71,-1.48 0.52,0.23 1.02,0.53 1.51,0.82 5.84,3.37 11.74,6.65 17.5,10.15 5.09,3.11 7.77,7.89 8.66,13.73 0.05,0.28 0.05,0.57 0.1,1.12 -0.13,0.59 -0.26,1.44 -0.52,2.25 z m 0.33,-33.6 c -0.91,2.75 -3.06,4.25 -5.92,3.88 -1.25,-0.17 -2.54,-0.6 -3.63,-1.22 -5.88,-3.33 -11.66,-6.82 -17.55,-10.12 -2.43,-1.36 -3.53,-3.17 -3.31,-5.94 0.14,-1.86 0.03,-3.74 0.03,-5.6 h 0.11 c 0,-2.45 -0.1,-4.9 0.03,-7.33 0.1,-1.9 1.24,-2.49 2.98,-1.58 2.29,1.2 4.51,2.55 6.74,3.84 3.86,2.24 7.78,4.37 11.54,6.75 4.69,2.96 7.78,7.17 9.03,12.64 0.36,1.57 0.47,3.12 -0.05,4.68 z"
         id="path18" /><path
         class="st1"
         d="m 108.92,403.52 c -0.01,0.95 -0.31,1.9 -0.53,3.15 -1.19,-0.29 -2.23,-0.32 -3.03,-0.78 -6.22,-3.59 -12.44,-7.18 -18.56,-10.94 -3.82,-2.35 -6.11,-6 -7.54,-10.2 -0.65,-1.93 -0.89,-3.92 -0.47,-5.95 0.64,-3.1 2.78,-4.72 5.91,-4.27 1.24,0.17 2.53,0.61 3.62,1.23 6,3.39 11.94,6.91 17.92,10.33 1.94,1.12 2.81,2.64 2.74,4.93 -0.12,4.16 0,8.33 -0.06,12.5 z"
         id="path20" /><path
         class="st1"
         d="m 108.92,437.29 c -0.01,0.82 -0.28,1.64 -0.41,2.34 -1.81,0.78 -2.98,-0.3 -4.18,-0.98 -4.37,-2.48 -8.7,-5.03 -13.03,-7.58 -1.74,-1.01 -3.55,-1.94 -5.14,-3.15 -4.31,-3.27 -7,-7.53 -7.44,-13.03 -0.07,-0.85 -0.02,-1.73 0.1,-2.58 0.42,-2.99 3.61,-5.44 6.67,-4.26 1.2,0.47 2.45,0.85 3.56,1.48 5.37,3.05 10.7,6.17 16.05,9.26 0.37,0.22 0.72,0.48 1.1,0.67 1.98,1.04 2.84,2.61 2.78,4.9 -0.12,4.3 -0.02,8.62 -0.06,12.93 z"
         id="path22" /><path
         class="st1"
         d="m 108.96,457.83 c -0.1,2.15 -0.02,4.31 -0.02,6.46 h -0.04 c 0,2.3 0.07,4.6 -0.03,6.89 -0.09,2.2 -1.08,2.69 -3.13,1.69 -0.65,-0.32 -1.26,-0.69 -1.88,-1.05 -5.34,-3.1 -10.65,-6.23 -16.01,-9.29 -4.36,-2.49 -7.08,-6.26 -8.51,-10.93 -0.53,-1.73 -0.67,-3.69 -0.51,-5.5 0.34,-3.6 3.32,-5.56 6.76,-4.62 1.24,0.34 2.46,0.85 3.57,1.49 5.72,3.28 11.38,6.69 17.13,9.93 2.03,1.14 2.78,2.7 2.67,4.93 z"
         id="path24" /><path
         class="st1"
         d="m 108.93,497.49 h -0.05 c 0,2.44 0.08,4.88 -0.02,7.31 -0.08,1.96 -1.06,2.5 -2.9,1.59 -1.8,-0.89 -3.51,-1.95 -5.25,-2.95 -4.1,-2.36 -8.2,-4.72 -12.29,-7.1 -4.26,-2.48 -7.15,-6.1 -8.92,-10.69 -0.8,-2.07 -0.97,-4.18 -0.68,-6.34 0.39,-2.93 2.34,-4.71 5.25,-4.53 1.38,0.08 2.88,0.45 4.07,1.13 6.12,3.45 12.14,7.09 18.23,10.58 1.82,1.05 2.67,2.45 2.58,4.54 -0.09,2.15 -0.02,4.31 -0.02,6.46 z"
         id="path26" /><path
         class="st1"
         d="m 146.89,574.31 c -0.39,3.62 -3.79,6.3 -7.86,4.65 -2.3,-0.93 -4.2,-2.42 -5.79,-4.32 -2.93,-3.52 -4.75,-7.52 -4.83,-12.14 -0.09,-6.02 -0.06,-12.03 -0.01,-18.05 0.01,-0.96 0.39,-1.92 0.71,-3.41 1.26,0.34 2.15,0.4 2.84,0.79 4.12,2.32 8.15,4.79 12.28,7.07 2.14,1.18 3.08,2.94 3.11,5.24 0.08,6.73 0.28,13.45 -0.45,20.17 z"
         id="path28" /><path
         class="st1"
         d="m 177.78,571.78 c -0.06,6.03 -0.02,12.06 -0.04,18.09 0,0.72 -0.06,1.44 -0.18,2.15 -0.81,4.42 -4.1,6.24 -8.31,4.53 -1.05,-0.43 -2.08,-1.03 -2.94,-1.76 -4.45,-3.82 -7.19,-8.52 -7.19,-14.56 0,-5.88 -0.02,-11.77 0.03,-17.66 0.01,-1.09 0.29,-2.18 0.54,-3.95 1.75,0.69 2.84,0.99 3.81,1.53 3.75,2.11 7.42,4.37 11.2,6.43 2.14,1.16 3.1,2.79 3.08,5.2 z"
         id="path30" /><path
         class="st1"
         d="m 208.19,598.77 c 0,3.16 0.03,6.32 -0.02,9.48 -0.01,1 -0.07,2.04 -0.36,2.98 -0.87,2.83 -3.58,4.32 -6.43,3.6 -1.85,-0.46 -3.47,-1.35 -4.9,-2.61 -4.18,-3.71 -6.68,-8.34 -6.9,-13.9 -0.25,-6.03 -0.06,-12.08 -0.05,-18.11 0,-0.29 0.03,-0.58 0.06,-0.86 0.3,-2.47 1.25,-3.1 3.4,-1.92 4.41,2.42 8.73,4.99 13.1,7.49 1.53,0.87 2.14,2.18 2.12,3.93 -0.05,3.3 -0.02,6.61 -0.02,9.92 z"
         id="path32" /><path
         class="st1"
         d="m 239.12,607.35 c -0.05,6.03 -0.01,12.07 -0.07,18.1 0,0.99 -0.19,2 -0.46,2.96 -1,3.46 -3.42,4.89 -6.89,4.07 -0.82,-0.2 -1.67,-0.51 -2.37,-0.97 -5.24,-3.4 -8.61,-8.11 -8.88,-14.44 -0.27,-6.45 -0.07,-12.92 -0.02,-19.38 0,-0.95 0.32,-1.9 0.54,-3.08 1.05,0.18 1.97,0.11 2.64,0.49 4.25,2.4 8.43,4.93 12.67,7.35 1.94,1.1 2.86,2.66 2.84,4.9 z"
         id="path34" /><path
         class="st1"
         d="m 289.25,602.26 c -0.23,4.07 -3.23,6.15 -7.19,5.05 -1.22,-0.34 -2.38,-0.99 -3.5,-1.64 -5.59,-3.21 -11.16,-6.49 -16.76,-9.71 -1.73,-1 -3.02,-2.31 -3,-4.39 0.05,-4.72 0.19,-9.45 0.34,-14.18 0.02,-0.54 0.31,-1.07 0.63,-2.16 1.31,0.45 2.31,0.63 3.13,1.1 5.61,3.21 11.2,6.45 16.77,9.72 4.52,2.66 7.67,6.46 9.07,11.55 0.41,1.49 0.6,3.11 0.51,4.66 z"
         id="path36" /><path
         class="st1"
         d="m 289.44,569.51 c -0.81,4 -3.87,5.8 -7.65,4.41 -1.21,-0.45 -2.37,-1.04 -3.48,-1.68 -5.35,-3.08 -10.64,-6.25 -16.03,-9.25 -2.28,-1.27 -3.34,-2.93 -3.13,-5.55 0.15,-1.85 0.03,-3.73 0.03,-5.59 h 0.06 c 0,-2.44 -0.08,-4.89 0.02,-7.32 0.09,-2.15 1.14,-2.7 3.17,-1.7 1.41,0.7 2.76,1.53 4.12,2.32 4.6,2.65 9.19,5.32 13.79,7.96 4.19,2.4 6.86,6.03 8.45,10.49 0.68,1.9 1.06,3.87 0.65,5.91 z"
         id="path38" /><path
         class="st1"
         d="m 289.83,534.92 c -0.13,0.59 -0.26,1.44 -0.52,2.25 -0.91,2.83 -2.99,4.21 -5.92,3.74 -1.25,-0.2 -2.53,-0.64 -3.63,-1.27 -5.86,-3.32 -11.68,-6.74 -17.5,-10.13 -0.5,-0.29 -0.97,-0.62 -1.44,-0.95 -1.01,-0.7 -1.56,-1.68 -1.56,-2.91 0.02,-5.02 -0.01,-10.05 0.09,-15.07 0.04,-1.65 1.17,-2.18 2.71,-1.48 0.52,0.23 1.02,0.53 1.51,0.82 5.84,3.37 11.74,6.65 17.5,10.15 5.09,3.11 7.77,7.89 8.66,13.73 0.05,0.28 0.05,0.57 0.1,1.12 z"
         id="path40" /><path
         class="st1"
         d="m 289.64,503.57 c -0.91,2.75 -3.06,4.25 -5.92,3.88 -1.25,-0.17 -2.54,-0.6 -3.63,-1.22 -5.88,-3.33 -11.66,-6.82 -17.55,-10.12 -2.43,-1.36 -3.53,-3.17 -3.31,-5.94 0.14,-1.86 0.03,-3.74 0.03,-5.6 h 0.11 c 0,-2.45 -0.1,-4.9 0.03,-7.33 0.1,-1.9 1.24,-2.49 2.98,-1.58 2.29,1.2 4.51,2.55 6.74,3.84 3.86,2.24 7.78,4.37 11.54,6.75 4.69,2.96 7.78,7.17 9.03,12.64 0.36,1.57 0.47,3.12 -0.05,4.68 z"
         id="path42" /><path
         class="st1"
         d="m 238.85,428.18 c -0.05,2.86 -0.3,5.72 -0.49,8.58 -0.04,0.55 -0.28,1.09 -0.57,2.21 -1.48,-0.55 -2.59,-0.82 -3.55,-1.35 -3.75,-2.11 -7.42,-4.35 -11.18,-6.45 -2.24,-1.25 -3.29,-3.05 -3.27,-5.59 0.04,-5.6 -0.01,-11.19 0.07,-16.79 0.02,-1.42 0.27,-2.86 0.62,-4.25 0.73,-2.94 2.68,-4.37 5.69,-4 1.38,0.17 2.83,0.65 4,1.38 4.48,2.81 7.24,6.88 8.21,12.09 0.88,4.69 0.54,9.44 0.47,14.17 z"
         id="path44" /><path
         class="st1"
         d="m 208.05,408.72 h 0.01 c 0,2.58 0,5.17 -0.01,7.75 0,0.86 0.01,1.72 -0.07,2.58 -0.19,1.89 -1.23,2.49 -2.99,1.51 -4.5,-2.52 -8.95,-5.14 -13.41,-7.74 -1.48,-0.87 -2.22,-2.17 -2.21,-3.91 0.02,-6.75 -0.01,-13.49 0.05,-20.24 0.01,-0.97 0.32,-1.98 0.7,-2.89 1.11,-2.67 3.5,-3.89 6.28,-3.08 1.35,0.39 2.69,1.05 3.82,1.88 4.93,3.63 7.49,8.6 7.8,14.67 0.16,3.15 0.03,6.31 0.03,9.47 z"
         id="path46" /><path
         class="st1"
         d="m 177.13,390.75 c 0,3.01 0.01,6.02 -0.01,9.03 0,0.72 -0.06,1.44 -0.17,2.14 -0.14,0.93 -1,1.41 -1.93,1.11 -0.55,-0.18 -1.09,-0.39 -1.58,-0.67 -3.97,-2.3 -7.89,-4.68 -11.89,-6.91 -2.1,-1.17 -3.15,-2.78 -3.13,-5.19 0.04,-6.16 -0.13,-12.33 0.08,-18.49 0.23,-6.76 5,-9.21 10.52,-5.34 4.93,3.45 7.89,8.25 8.09,14.43 0.11,3.3 0.02,6.6 0.02,9.89 z"
         id="path48" /><path
         class="st1"
         d="m 146.55,382.32 c 0,0.94 -0.46,1.87 -0.86,3.37 -1.59,-0.66 -2.68,-0.98 -3.65,-1.53 -3.74,-2.12 -7.42,-4.36 -11.18,-6.44 -2.08,-1.16 -3.16,-2.83 -3.22,-5.17 -0.16,-6.73 -0.47,-13.47 0.39,-20.18 0.11,-0.84 0.31,-1.71 0.65,-2.48 0.83,-1.85 2.28,-2.84 4.37,-2.93 1.95,-0.09 3.68,0.48 5.24,1.59 4.85,3.43 7.84,8.15 8.2,14 0.41,6.57 0.13,13.18 0.06,19.77 z"
         id="path50" /><path
         class="st1"
         d="m 252.06,468.13 c 0.03,-5.13 -1.59,-9.56 -4.72,-13.55 -1.93,-2.46 -4.56,-3.92 -7.17,-5.43 -17.3,-10.02 -34.61,-20.01 -51.9,-30.03 -20.03,-11.61 -40.05,-23.25 -60.08,-34.86 -0.86,-0.5 -1.75,-1.01 -2.69,-1.35 -3.74,-1.36 -7.05,0.55 -7.65,4.49 -0.22,1.41 -0.15,2.87 -0.15,4.31 -0.01,20.14 -0.01,40.28 -0.01,60.42 h -0.03 c 0,20.28 0.01,40.56 -0.01,60.84 -0.01,7.44 3.24,12.98 9.58,16.7 10.16,5.98 20.36,11.89 30.56,17.82 17.65,10.26 35.31,20.51 52.96,30.77 9.82,5.71 19.63,11.44 29.48,17.11 1.35,0.78 2.82,1.47 4.32,1.85 3.11,0.79 5.42,-0.52 6.33,-3.59 0.4,-1.35 0.45,-2.83 0.45,-4.26 0.07,-22.72 0.08,-45.44 0.51,-68.16 0.34,-17.69 0.1,-35.39 0.22,-53.08 z m -27.28,7.85 c -0.03,25.01 -0.06,50.02 -0.1,75.03 -0.01,1.26 -0.12,2.52 -0.21,4.43 -1.43,-0.68 -2.22,-0.99 -2.95,-1.41 -19.88,-11.56 -39.74,-23.14 -59.61,-34.7 -4.34,-2.53 -8.66,-5.11 -13.07,-7.53 -2.01,-1.1 -2.82,-2.54 -2.8,-4.83 0.08,-11.5 -0.31,-23.02 0.14,-34.5 0.54,-13.51 0.18,-27.01 0.41,-40.51 0.03,-1.68 -0.33,-3.44 0.65,-5.07 1.65,-0.36 2.78,0.68 3.97,1.36 5.11,2.93 10.17,5.95 15.27,8.91 17.9,10.38 35.8,20.75 53.71,31.12 4.57,2.64 4.6,2.63 4.59,7.7 z"
         id="path52" /><path
         class="st0"
         d="m 666.61,266.5 c 0,-3.49 -0.39,-6.9 -1.01,-10.28 -0.6,-3.3 -2.06,-6.28 -4.46,-8.71 -2.22,-2.23 -4.84,-3.5 -8.07,-3.48 -2.48,0.01 -4.91,0.24 -7.18,1.23 -2.76,1.2 -5.56,2.36 -8.17,3.85 -22.21,12.71 -44.4,25.46 -66.57,38.25 -33.13,19.1 -66.24,38.25 -99.36,57.36 -26.66,15.38 -53.32,30.73 -79.99,46.06 -4.04,2.32 -7.65,5.11 -10.61,8.71 -3.94,4.78 -7.54,9.82 -10.34,15.36 -4.22,8.31 -6.58,17 -6.53,26.49 0.17,28.76 0,57.53 -0.03,86.3 0,1 0,2.01 -0.02,3.02 -0.35,21.41 0.18,42.84 -0.65,64.26 -0.25,6.46 -0.03,12.94 -0.04,19.41 -0.05,24.6 -0.11,49.19 -0.15,73.79 0,5.03 -0.08,10.07 0.14,15.1 0.22,5.08 1.43,9.95 4.39,14.23 2.19,3.15 5.2,4.89 9.06,5.03 2.45,0.09 4.86,-0.04 7.27,-0.69 4.19,-1.13 8.2,-2.66 11.94,-4.86 12.04,-7.05 24.05,-14.13 36.07,-21.21 31.35,-18.45 62.71,-36.88 94.05,-55.35 23.78,-14.01 47.54,-28.06 71.32,-42.09 16.1,-9.5 32.19,-19.01 48.32,-28.45 2.79,-1.63 5.21,-3.58 7,-6.27 2.31,-3.47 4.6,-6.95 6.83,-10.47 2.98,-4.67 4.84,-9.81 5.66,-15.26 0.61,-4.11 1.04,-8.29 1.05,-12.43 0.07,-43.15 0.05,-86.3 0.05,-129.45 0,-43.15 -0.02,-86.3 0.03,-129.45 z m -61,191.02 c -1.2,2.48 -1.65,4.94 -1.09,7.51 0.97,4.49 0.17,8.9 -0.45,13.29 -1.14,8.07 -4.15,15.53 -8.21,22.54 -3.74,6.47 -7.59,12.88 -11.56,19.21 -5.6,8.94 -12.27,17.02 -20.23,23.99 -0.53,0.47 -1.03,0.97 -1.83,1.72 0.51,1.36 0.91,2.43 1.29,3.5 0.73,2.03 1.57,4.03 2.12,6.11 1.26,4.76 1,9.38 -1.58,13.74 -3.54,5.97 -7.54,11.56 -12.65,16.3 -3.3,3.07 -6.92,5.6 -11.34,6.83 -3.91,1.09 -6.14,0.34 -8.67,-2.89 -1.24,-1.57 -2.53,-3.12 -3.88,-4.6 -2.34,-2.59 -5.36,-3.76 -8.8,-3.99 -1.57,-0.11 -3.2,-0.12 -4.69,-0.55 -3.68,-1.08 -6.74,-3.08 -8.97,-6.34 -2.31,-3.37 -3.79,-7.09 -4.94,-10.95 -1.15,-3.86 -2.14,-7.76 -3.23,-11.63 -0.31,-1.09 -0.7,-2.16 -1.13,-3.46 -1.21,0 -2.34,-0.07 -3.45,0.02 -3.88,0.28 -7.75,0.49 -11.57,-0.53 -1.36,-0.36 -2.57,-0.01 -3.67,0.76 -0.94,0.67 -1.83,1.39 -2.72,2.12 -3.99,3.22 -8.63,5.12 -13.46,6.62 -0.94,0.3 -2,0.44 -2.98,0.37 -2.7,-0.18 -5.04,0.58 -7.33,2 -3.2,1.99 -6.78,3.04 -10.51,3.7 -4.59,0.81 -8.18,-0.78 -11.06,-4.25 -1.96,-2.37 -3.18,-5.13 -3.84,-8.12 -1.05,-4.77 -1.93,-9.56 -1.71,-14.51 0.2,-4.6 -0.18,-9.17 -0.66,-13.76 -1.25,-12.14 0.6,-23.8 6.31,-34.71 0.67,-1.27 1.26,-2.59 2,-3.82 1.58,-2.62 2.49,-5.48 3.25,-8.41 1.59,-6.13 3.52,-12.14 5.88,-18.02 3.69,-9.19 9.1,-17.29 15.6,-24.66 2.68,-3.04 5.19,-6.1 7.09,-9.7 2.23,-4.2 4.95,-8.11 8.56,-11.29 1.07,-0.95 2.14,-1.96 3.37,-2.66 2.32,-1.33 4.01,-3.18 5.49,-5.36 2.61,-3.8 5.46,-7.42 9.39,-9.99 0.12,-0.08 0.22,-0.21 0.34,-0.26 3.92,-1.5 6.34,-4.83 9.23,-7.57 3.83,-3.63 8.27,-6.22 13.36,-7.6 2.58,-0.7 4.65,-1.96 6.56,-3.85 2.86,-2.82 5.78,-5.65 9.04,-7.97 6.69,-4.73 14.17,-6.94 22.41,-5.38 1.94,0.36 3.89,1.09 5.66,2 2.47,1.27 4.74,1.53 7.39,0.38 5.84,-2.55 10.95,-0.93 15.38,3.32 1.23,1.19 2.31,2.54 3.5,3.85 1.16,0.1 2.3,0.18 3.44,0.29 5.19,0.51 8.67,3.5 11.22,7.8 0.44,0.73 0.77,1.54 1.05,2.36 0.91,2.68 2.4,4.68 5.06,6.07 3.34,1.75 5.06,4.97 6.06,8.56 1.37,4.96 1.03,9.97 0.61,15 -0.06,0.71 -0.2,1.42 -0.33,2.13 -0.49,2.57 -0.38,5.11 0.04,7.7 0.57,3.55 0.93,7.13 1.17,10.71 0.63,9.25 -1.33,18.04 -5.33,26.33 z"
         id="path54" /><path
         class="st1"
         d="m 610.94,431.19 c -0.24,-3.58 -0.6,-7.16 -1.17,-10.71 -0.42,-2.59 -0.53,-5.13 -0.04,-7.7 0.13,-0.71 0.27,-1.42 0.33,-2.13 0.42,-5.03 0.76,-10.04 -0.61,-15 -1,-3.59 -2.72,-6.81 -6.06,-8.56 -2.66,-1.39 -4.15,-3.39 -5.06,-6.07 -0.28,-0.82 -0.61,-1.63 -1.05,-2.36 -2.55,-4.3 -6.03,-7.29 -11.22,-7.8 -1.14,-0.11 -2.28,-0.19 -3.44,-0.29 -1.19,-1.31 -2.27,-2.66 -3.5,-3.85 -4.43,-4.25 -9.54,-5.87 -15.38,-3.32 -2.65,1.15 -4.92,0.89 -7.39,-0.38 -1.77,-0.91 -3.72,-1.64 -5.66,-2 -8.24,-1.56 -15.72,0.65 -22.41,5.38 -3.26,2.32 -6.18,5.15 -9.04,7.97 -1.91,1.89 -3.98,3.15 -6.56,3.85 -5.09,1.38 -9.53,3.97 -13.36,7.6 -2.89,2.74 -5.31,6.07 -9.23,7.57 -0.12,0.05 -0.22,0.18 -0.34,0.26 -3.93,2.57 -6.78,6.19 -9.39,9.99 -1.48,2.18 -3.17,4.03 -5.49,5.36 -1.23,0.7 -2.3,1.71 -3.37,2.66 -3.61,3.18 -6.33,7.09 -8.56,11.29 -1.9,3.6 -4.41,6.66 -7.09,9.7 -6.5,7.37 -11.91,15.47 -15.6,24.66 -2.36,5.88 -4.29,11.89 -5.88,18.02 -0.76,2.93 -1.67,5.79 -3.25,8.41 -0.74,1.23 -1.33,2.55 -2,3.82 -5.71,10.91 -7.56,22.57 -6.31,34.71 0.48,4.59 0.86,9.16 0.66,13.76 -0.22,4.95 0.66,9.74 1.71,14.51 0.66,2.99 1.88,5.75 3.84,8.12 2.88,3.47 6.47,5.06 11.06,4.25 3.73,-0.66 7.31,-1.71 10.51,-3.7 2.29,-1.42 4.63,-2.18 7.33,-2 0.98,0.07 2.04,-0.07 2.98,-0.37 4.83,-1.5 9.47,-3.4 13.46,-6.62 0.89,-0.73 1.78,-1.45 2.72,-2.12 1.1,-0.77 2.31,-1.12 3.67,-0.76 3.82,1.02 7.69,0.81 11.57,0.53 1.11,-0.09 2.24,-0.02 3.45,-0.02 0.43,1.3 0.82,2.37 1.13,3.46 1.09,3.87 2.08,7.77 3.23,11.63 1.15,3.86 2.63,7.58 4.94,10.95 2.23,3.26 5.29,5.26 8.97,6.34 1.49,0.43 3.12,0.44 4.69,0.55 3.44,0.23 6.46,1.4 8.8,3.99 1.35,1.48 2.64,3.03 3.88,4.6 2.53,3.23 4.76,3.98 8.67,2.89 4.42,-1.23 8.04,-3.76 11.34,-6.83 5.11,-4.74 9.11,-10.33 12.65,-16.3 2.58,-4.36 2.84,-8.98 1.58,-13.74 -0.55,-2.08 -1.39,-4.08 -2.12,-6.11 -0.38,-1.07 -0.78,-2.14 -1.29,-3.5 0.8,-0.75 1.3,-1.25 1.83,-1.72 7.96,-6.97 14.63,-15.05 20.23,-23.99 3.97,-6.33 7.82,-12.74 11.56,-19.21 4.06,-7.01 7.07,-14.47 8.21,-22.54 0.62,-4.39 1.42,-8.8 0.45,-13.29 -0.56,-2.57 -0.11,-5.03 1.09,-7.51 4,-8.29 5.96,-17.08 5.33,-26.33 z m -60.08,136.94 c -2.03,2.03 -3.82,4.32 -6.51,5.57 -0.63,0.3 -1.32,0.49 -2.36,0.87 -0.93,-1.15 -1.64,-2.04 -2.36,-2.91 -4.43,-5.36 -9.9,-8.72 -17.05,-8.72 -4.35,0 -6.92,-2.47 -8.55,-6.11 -2.18,-4.87 -3.42,-10.03 -4.42,-15.28 1.47,-2.08 3.38,-3.12 5.82,-3.33 1.42,-0.12 2.83,-0.45 4.26,-0.59 5.09,-0.5 9.3,-2.82 12.96,-6.24 1.66,-1.56 3.25,-3.19 4.86,-4.78 1.14,0.81 0.67,1.93 0.91,2.84 0.25,0.97 0.39,1.97 0.47,2.97 0.45,5.48 2.13,10.38 6.3,14.23 0.82,0.75 1.53,1.76 1.96,2.78 1.7,4.12 3.21,8.31 4.9,12.43 1,2.41 0.67,4.41 -1.19,6.27 z m 41.12,-85.85 c -0.71,2.18 -1.45,4.37 -2.47,6.42 -5.78,11.57 -12.42,22.64 -20.67,32.64 -1.91,2.32 -4.08,4.44 -6.29,6.47 -1.14,1.05 -2.56,1.85 -3.98,2.51 -2.18,1.01 -3.81,0.51 -5.24,-1.48 -0.57,-0.8 -1.06,-1.74 -1.31,-2.68 -1.46,-5.35 -1.75,-10.75 -0.41,-16.16 0.24,-0.95 0.64,-1.91 1.19,-2.72 2.17,-3.2 4.49,-6.3 6.64,-9.52 1.02,-1.54 2.17,-2.54 4.13,-2.62 3.95,-0.16 7,-2.35 9.86,-4.79 1.19,-1.02 2.3,-2.18 3.25,-3.43 1.87,-2.44 4.15,-4.27 6.85,-5.75 2.26,-1.22 4.27,-2.88 6.4,-4.32 0.55,-0.37 1.16,-0.65 2.02,-1.12 0.84,2.42 0.68,4.52 0.03,6.55 z m -3.07,-21.65 c -2.1,1.71 -4.36,3.25 -7.05,4.44 -1.65,-2.1 -1.88,-4.24 -1.17,-6.53 0.39,-1.23 0.98,-2.4 1.4,-3.62 0.47,-1.39 0.55,-2.82 0.02,-4.23 -0.82,-2.18 -3.03,-3.01 -4.85,-1.6 -1.1,0.85 -2.06,2.02 -2.74,3.24 -2.51,4.46 -4.09,9.18 -3.57,14.42 0.14,1.43 0.13,2.87 0.26,4.31 0.33,3.77 -1.45,5.95 -5.21,6.29 -0.71,0.06 -1.45,0.09 -2.15,-0.05 -3.85,-0.76 -6.36,1.24 -8.29,4.15 -1.18,1.79 -1.99,3.82 -3.07,5.69 -1.29,2.23 -2.63,4.44 -4.08,6.57 -0.42,0.62 -1.3,0.92 -2.35,1.61 -0.29,-1.32 -0.64,-2.23 -0.68,-3.16 -0.07,-1.72 0.09,-3.45 0.04,-5.17 -0.04,-1.53 -0.62,-2.84 -2.16,-3.42 -1.56,-0.59 -2.92,0.05 -3.9,1.15 -0.93,1.04 -1.78,2.28 -2.27,3.58 -1.74,4.69 -2.25,9.49 -0.65,14.36 0.27,0.82 0.57,1.63 0.87,2.44 0.38,1 0.33,2.01 -0.22,2.91 -2.35,3.8 -4.77,7.56 -8.79,9.88 -2.02,1.16 -4.14,2.01 -6.55,1.78 -1.13,-0.11 -1.96,-0.73 -2.03,-1.87 -0.35,-5.88 -0.94,-11.76 2.78,-17.05 1.29,-1.84 1.97,-4.12 2.81,-6.25 0.49,-1.27 0.16,-2.55 -0.5,-3.73 -1.14,-2.02 -3.32,-2.42 -5.09,-0.88 -0.43,0.37 -0.85,0.81 -1.12,1.3 -2.05,3.62 -4.27,7.17 -6.02,10.93 -2.2,4.75 -3.16,9.84 -2.86,15.12 0.05,0.86 -0.06,1.74 0.05,2.59 0.44,3.34 -1.1,5.31 -4,6.83 -5.23,2.74 -10.62,4.33 -16.56,3.51 -0.71,-0.1 -1.43,-0.21 -2.11,-0.42 -1.23,-0.39 -1.87,-1.3 -1.94,-2.56 -0.1,-1.65 0.36,-3.16 1.3,-4.48 1.07,-1.52 2.25,-2.98 3.42,-4.43 1.71,-2.11 2.52,-4.48 2.26,-7.21 -0.14,-1.37 -0.61,-2.53 -1.95,-3.1 -1.38,-0.59 -2.6,-0.05 -3.58,0.84 -3.31,3.03 -6.25,6.36 -8.01,10.57 -1.28,3.06 -2.39,6.18 -2.78,9.49 -0.34,2.97 -1.74,5.07 -4.47,6.36 -1.42,0.67 -2.72,1.61 -4.11,2.36 -2.21,1.2 -4.57,1.83 -7.07,1.31 -2.6,-0.55 -4.79,0.18 -6.91,1.6 -1.67,1.12 -3.44,2.09 -5.17,3.13 -1.66,0.99 -3.48,1.26 -5.39,1.22 -2.27,-0.04 -3.84,-1.17 -4.71,-3.18 -0.5,-1.17 -0.98,-2.46 -1.02,-3.71 -0.16,-4.16 -0.21,-8.34 -0.11,-12.5 0.06,-2.44 1.01,-3.28 3.44,-3.59 0.71,-0.09 1.43,-0.12 2.15,-0.09 2.43,0.09 4.15,-1.15 5.31,-3.1 0.8,-1.33 1.47,-2.82 1.82,-4.34 0.73,-3.12 -0.97,-5.41 -4.13,-5.78 -2.02,-0.24 -4.01,-0.1 -5.94,0.67 -0.79,0.32 -1.65,0.71 -2.45,0.67 -0.55,-0.02 -1.08,-0.72 -1.6,-1.14 -0.08,-0.08 -0.11,-0.28 -0.09,-0.41 0.44,-4.56 0.42,-9.22 2.66,-13.42 0.2,-0.38 0.37,-0.85 0.7,-1.07 0.56,-0.38 1.2,-0.69 1.86,-0.86 0.37,-0.09 0.85,0.11 1.25,0.25 5.64,1.99 10.39,-0.2 15.01,-3.12 4.18,-2.64 7.72,-5.95 10.93,-9.68 2.25,-2.62 4.77,-4.97 7.91,-6.58 2.24,-1.16 4.36,-1.34 6.5,0.14 0.35,0.24 0.72,0.48 1.1,0.67 2,0.96 3.58,0.71 5.11,-0.8 0.2,-0.2 0.39,-0.42 0.56,-0.65 2.03,-2.67 3.28,-5.69 1.69,-8.82 -1.72,-3.36 -5,-4.65 -8.69,-4.58 -2.01,0.04 -3.98,0.58 -5.78,1.58 -1.86,1.04 -3.74,2.06 -5.49,3.02 -1.09,-0.42 -0.94,-1.22 -0.99,-1.9 -0.08,-1.29 0,-2.61 -0.23,-3.87 -0.43,-2.36 -2.47,-3.41 -4.51,-2.25 -1.08,0.62 -2.09,1.54 -2.81,2.56 -1.27,1.79 -1.81,3.88 -1.79,6.11 0.02,2.3 -0.06,4.6 0.01,6.9 0.07,2.23 -0.82,3.92 -2.66,5.09 -1.69,1.08 -3.43,2.09 -5.19,3.06 -1.45,0.8 -3.05,0.8 -4.63,0.54 -1.69,-0.27 -2.51,-1.39 -2.06,-3.09 1.12,-4.31 2.2,-8.64 3.6,-12.87 2.65,-8.05 6.98,-15.14 13.06,-21.07 3.65,-3.56 6.54,-7.57 8.74,-12.18 0.91,-1.91 2.38,-3.57 3.68,-5.27 0.4,-0.52 1.11,-0.8 1.79,-1.26 1.65,1.53 2.5,3.37 3.28,5.18 0.85,1.99 0.39,3.96 -0.85,5.72 -1.09,1.52 -2.24,2.99 -3.32,4.52 -1.29,1.83 -1.82,3.87 -1.65,6.12 0.11,1.35 0.44,2.59 1.73,3.26 1.52,0.78 2.88,0.14 3.93,-0.89 1.43,-1.4 2.84,-2.88 3.93,-4.54 1.44,-2.18 3.1,-3.27 5.82,-3.73 5.16,-0.86 8.8,-4 10.42,-9.17 0.55,-1.76 0.41,-3.41 -0.77,-4.89 -0.89,-1.12 -2.11,-1.56 -3.45,-1.12 -0.67,0.22 -1.28,0.63 -1.93,0.93 -0.52,0.23 -1.06,0.43 -1.81,0.73 -0.46,-0.47 -1.11,-0.87 -1.38,-1.44 -1.43,-2.98 -2.76,-6 -4.33,-9.46 1.27,-3.58 3.36,-6.87 7.67,-8.07 2.09,-0.58 3.44,-1.94 4.78,-3.48 1.88,-2.17 3.77,-4.35 5.83,-6.34 1.66,-1.61 3.63,-2.81 6.36,-2.21 0.11,0.9 0.31,1.73 0.3,2.57 -0.02,7.09 1.29,14 2.72,20.91 1.48,7.15 -0.08,13.43 -5.96,18.15 -2,1.61 -3.45,3.49 -4.06,5.92 -0.31,1.2 -0.38,2.59 -0.1,3.79 0.52,2.22 2.7,3.13 4.75,2.14 0.89,-0.44 1.7,-1.07 2.47,-1.7 3.97,-3.27 6.8,-7.4 8.97,-12 1.84,-3.91 3.44,-7.94 3.87,-12.28 0.19,-1.92 0.99,-3.12 2.63,-4.12 3.24,-1.95 4.61,-5.01 4.41,-8.75 -0.14,-2.51 -1.43,-3.81 -3.9,-3.4 -4.2,0.69 -4.95,-0.31 -5.61,-4.35 -0.51,-3.13 -0.93,-6.24 -0.89,-9.42 0.02,-1.66 0.48,-3.06 1.54,-4.35 3.83,-4.63 8.33,-8.41 13.97,-10.53 5.04,-1.9 9.91,-0.8 14.44,1.9 1.21,0.71 1.13,1.85 0.77,3.05 -1.43,4.72 -3.53,9.12 -6.41,13.12 -1.36,1.9 -2.58,3.84 -2.84,6.2 -0.1,0.96 -0.03,2.04 0.31,2.92 0.84,2.15 3.17,2.83 4.93,1.35 1.31,-1.09 2.44,-2.44 3.44,-3.83 3.8,-5.3 6.57,-11.13 8.6,-17.31 0.36,-1.1 0.69,-2.2 1.09,-3.28 0.55,-1.51 1.71,-2.3 3.28,-2.37 0.99,-0.05 2.03,-0.07 2.99,0.15 2.99,0.69 4.79,3.17 4.04,6.1 -1.33,5.14 -2.7,10.31 -6.03,14.5 -0.39,0.2 -0.64,0.43 -0.9,0.44 -1.87,0.08 -3.73,0.06 -5.05,1.81 -1.59,2.12 -2.77,4.36 -2.56,7.13 0.2,2.6 1.85,4.24 4.46,4.26 2.42,0.02 4.48,-0.9 6.22,-2.56 1.02,-0.98 2.03,-1.96 3.29,-3.17 0.88,1.1 1.56,1.97 2.26,2.82 1.89,2.29 3.63,2.45 5.89,0.55 2.64,-2.22 3.65,-6.6 2.25,-9.86 -0.28,-0.66 -0.65,-1.28 -1,-1.91 -1.64,-2.93 -1.61,-6.08 -1.11,-9.24 0.4,-2.51 2.92,-3.71 5.26,-2.64 1.67,0.77 2.75,2.1 3.31,3.8 0.49,1.5 0.87,3.04 1.18,4.59 0.53,2.62 1.81,4.5 4.53,5.2 0.55,0.14 1.09,0.38 1.6,0.62 2.13,1.01 3.39,2.61 3.4,5.05 0.01,1.58 -0.06,3.17 0.03,4.75 0.14,2.71 -1.01,4.7 -3.22,6.17 -2.53,1.68 -5.14,3.05 -8.28,3.37 -4.42,0.45 -7.87,6.09 -6.51,10.3 0.53,1.64 2.04,2.85 3.93,2.82 1.27,-0.02 2.6,-0.24 3.79,-0.69 2.28,-0.85 4.48,-1.92 6.71,-2.93 0.76,-0.34 1.5,-0.75 2.55,-1.27 0.46,0.82 0.8,1.16 0.85,1.55 0.31,2.42 0.77,4.84 0.81,7.27 0.14,8.53 -2.73,15.8 -9.46,21.27 z"
         id="path56" /><path
         class="st0"
         d="m 397.28,199.34 c -1.09,1.34 -2.04,2.81 -3.22,4.05 -4.11,4.28 -8.67,8 -14.05,10.58 -7.16,3.44 -14.64,5.95 -22.4,7.65 -2.01,0.43 -3.96,0.27 -5.98,-0.13 -4.22,-0.85 -8.47,-1.59 -12.73,-2.19 -1.77,-0.24 -3.35,-0.75 -4.79,-1.75 -5.24,-3.63 -10.12,-7.67 -13.52,-13.14 -3.5,-5.66 -4.87,-11.93 -4.5,-18.56 0.11,-2.05 1.16,-3.33 3.09,-4.25 2.71,-1.29 5.3,-2.88 7.82,-4.52 1.26,-0.81 2.51,-1.33 3.99,-1.43 2.86,-0.22 5.72,-0.48 8.88,-0.74 5.74,0.51 11.74,1.19 17.76,1.54 6.38,0.37 12.46,2.05 18.56,3.69 4.88,1.32 9.53,3.21 14.09,5.36 1.92,0.9 3.25,2.15 4.06,4.19 0.78,1.99 1.97,3.83 3.06,5.68 0.82,1.39 0.94,2.67 -0.12,3.97 z"
         id="path58" /><path
         class="st0"
         d="m 224.78,475.98 c -0.03,25.01 -0.06,50.02 -0.1,75.03 -0.01,1.26 -0.12,2.52 -0.21,4.43 -1.43,-0.68 -2.22,-0.99 -2.95,-1.41 -19.88,-11.56 -39.74,-23.14 -59.61,-34.7 -4.34,-2.53 -8.66,-5.11 -13.07,-7.53 -2.01,-1.1 -2.82,-2.54 -2.8,-4.83 0.08,-11.5 -0.31,-23.02 0.14,-34.5 0.54,-13.51 0.18,-27.01 0.41,-40.51 0.03,-1.68 -0.33,-3.44 0.65,-5.07 1.65,-0.36 2.78,0.68 3.97,1.36 5.11,2.93 10.17,5.95 15.27,8.91 17.9,10.38 35.8,20.75 53.71,31.12 4.57,2.64 4.6,2.63 4.59,7.7 z"
         id="path60" /><path
         class="st0"
         d="m 597.56,432.09 c -0.05,-0.39 -0.39,-0.73 -0.85,-1.55 -1.05,0.52 -1.79,0.93 -2.55,1.27 -2.23,1.01 -4.43,2.08 -6.71,2.93 -1.19,0.45 -2.52,0.67 -3.79,0.69 -1.89,0.03 -3.4,-1.18 -3.93,-2.82 -1.36,-4.21 2.09,-9.85 6.51,-10.3 3.14,-0.32 5.75,-1.69 8.28,-3.37 2.21,-1.47 3.36,-3.46 3.22,-6.17 -0.09,-1.58 -0.02,-3.17 -0.03,-4.75 -0.01,-2.44 -1.27,-4.04 -3.4,-5.05 -0.51,-0.24 -1.05,-0.48 -1.6,-0.62 -2.72,-0.7 -4,-2.58 -4.53,-5.2 -0.31,-1.55 -0.69,-3.09 -1.18,-4.59 -0.56,-1.7 -1.64,-3.03 -3.31,-3.8 -2.34,-1.07 -4.86,0.13 -5.26,2.64 -0.5,3.16 -0.53,6.31 1.11,9.24 0.35,0.63 0.72,1.25 1,1.91 1.4,3.26 0.39,7.64 -2.25,9.86 -2.26,1.9 -4,1.74 -5.89,-0.55 -0.7,-0.85 -1.38,-1.72 -2.26,-2.82 -1.26,1.21 -2.27,2.19 -3.29,3.17 -1.74,1.66 -3.8,2.58 -6.22,2.56 -2.61,-0.02 -4.26,-1.66 -4.46,-4.26 -0.21,-2.77 0.97,-5.01 2.56,-7.13 1.32,-1.75 3.18,-1.73 5.05,-1.81 0.26,-0.01 0.51,-0.24 0.9,-0.44 3.33,-4.19 4.7,-9.36 6.03,-14.5 0.75,-2.93 -1.05,-5.41 -4.04,-6.1 -0.96,-0.22 -2,-0.2 -2.99,-0.15 -1.57,0.07 -2.73,0.86 -3.28,2.37 -0.4,1.08 -0.73,2.18 -1.09,3.28 -2.03,6.18 -4.8,12.01 -8.6,17.31 -1,1.39 -2.13,2.74 -3.44,3.83 -1.76,1.48 -4.09,0.8 -4.93,-1.35 -0.34,-0.88 -0.41,-1.96 -0.31,-2.92 0.26,-2.36 1.48,-4.3 2.84,-6.2 2.88,-4 4.98,-8.4 6.41,-13.12 0.36,-1.2 0.44,-2.34 -0.77,-3.05 -4.53,-2.7 -9.4,-3.8 -14.44,-1.9 -5.64,2.12 -10.14,5.9 -13.97,10.53 -1.06,1.29 -1.52,2.69 -1.54,4.35 -0.04,3.18 0.38,6.29 0.89,9.42 0.66,4.04 1.41,5.04 5.61,4.35 2.47,-0.41 3.76,0.89 3.9,3.4 0.2,3.74 -1.17,6.8 -4.41,8.75 -1.64,1 -2.44,2.2 -2.63,4.12 -0.43,4.34 -2.03,8.37 -3.87,12.28 -2.17,4.6 -5,8.73 -8.97,12 -0.77,0.63 -1.58,1.26 -2.47,1.7 -2.05,0.99 -4.23,0.08 -4.75,-2.14 -0.28,-1.2 -0.21,-2.59 0.1,-3.79 0.61,-2.43 2.06,-4.31 4.06,-5.92 5.88,-4.72 7.44,-11 5.96,-18.15 -1.43,-6.91 -2.74,-13.82 -2.72,-20.91 0.01,-0.84 -0.19,-1.67 -0.3,-2.57 -2.73,-0.6 -4.7,0.6 -6.36,2.21 -2.06,1.99 -3.95,4.17 -5.83,6.34 -1.34,1.54 -2.69,2.9 -4.78,3.48 -4.31,1.2 -6.4,4.49 -7.67,8.07 1.57,3.46 2.9,6.48 4.33,9.46 0.27,0.57 0.92,0.97 1.38,1.44 0.75,-0.3 1.29,-0.5 1.81,-0.73 0.65,-0.3 1.26,-0.71 1.93,-0.93 1.34,-0.44 2.56,0 3.45,1.12 1.18,1.48 1.32,3.13 0.77,4.89 -1.62,5.17 -5.26,8.31 -10.42,9.17 -2.72,0.46 -4.38,1.55 -5.82,3.73 -1.09,1.66 -2.5,3.14 -3.93,4.54 -1.05,1.03 -2.41,1.67 -3.93,0.89 -1.29,-0.67 -1.62,-1.91 -1.73,-3.26 -0.17,-2.25 0.36,-4.29 1.65,-6.12 1.08,-1.53 2.23,-3 3.32,-4.52 1.24,-1.76 1.7,-3.73 0.85,-5.72 -0.78,-1.81 -1.63,-3.65 -3.28,-5.18 -0.68,0.46 -1.39,0.74 -1.79,1.26 -1.3,1.7 -2.77,3.36 -3.68,5.27 -2.2,4.61 -5.09,8.62 -8.74,12.18 -6.08,5.93 -10.41,13.02 -13.06,21.07 -1.4,4.23 -2.48,8.56 -3.6,12.87 -0.45,1.7 0.37,2.82 2.06,3.09 1.58,0.26 3.18,0.26 4.63,-0.54 1.76,-0.97 3.5,-1.98 5.19,-3.06 1.84,-1.17 2.73,-2.86 2.66,-5.09 -0.07,-2.3 0.01,-4.6 -0.01,-6.9 -0.02,-2.23 0.52,-4.32 1.79,-6.11 0.72,-1.02 1.73,-1.94 2.81,-2.56 2.04,-1.16 4.08,-0.11 4.51,2.25 0.23,1.26 0.15,2.58 0.23,3.87 0.05,0.68 -0.1,1.48 0.99,1.9 1.75,-0.96 3.63,-1.98 5.49,-3.02 1.8,-1 3.77,-1.54 5.78,-1.58 3.69,-0.07 6.97,1.22 8.69,4.58 1.59,3.13 0.34,6.15 -1.69,8.82 -0.17,0.23 -0.36,0.45 -0.56,0.65 -1.53,1.51 -3.11,1.76 -5.11,0.8 -0.38,-0.19 -0.75,-0.43 -1.1,-0.67 -2.14,-1.48 -4.26,-1.3 -6.5,-0.14 -3.14,1.61 -5.66,3.96 -7.91,6.58 -3.21,3.73 -6.75,7.04 -10.93,9.68 -4.62,2.92 -9.37,5.11 -15.01,3.12 -0.4,-0.14 -0.88,-0.34 -1.25,-0.25 -0.66,0.17 -1.3,0.48 -1.86,0.86 -0.33,0.22 -0.5,0.69 -0.7,1.07 -2.24,4.2 -2.22,8.86 -2.66,13.42 -0.02,0.13 0.01,0.33 0.09,0.41 0.52,0.42 1.05,1.12 1.6,1.14 0.8,0.04 1.66,-0.35 2.45,-0.67 1.93,-0.77 3.92,-0.91 5.94,-0.67 3.16,0.37 4.86,2.66 4.13,5.78 -0.35,1.52 -1.02,3.01 -1.82,4.34 -1.16,1.95 -2.88,3.19 -5.31,3.1 -0.72,-0.03 -1.44,0 -2.15,0.09 -2.43,0.31 -3.38,1.15 -3.44,3.59 -0.1,4.16 -0.05,8.34 0.11,12.5 0.04,1.25 0.52,2.54 1.02,3.71 0.87,2.01 2.44,3.14 4.71,3.18 1.91,0.04 3.73,-0.23 5.39,-1.22 1.73,-1.04 3.5,-2.01 5.17,-3.13 2.12,-1.42 4.31,-2.15 6.91,-1.6 2.5,0.52 4.86,-0.11 7.07,-1.31 1.39,-0.75 2.69,-1.69 4.11,-2.36 2.73,-1.29 4.13,-3.39 4.47,-6.36 0.39,-3.31 1.5,-6.43 2.78,-9.49 1.76,-4.21 4.7,-7.54 8.01,-10.57 0.98,-0.89 2.2,-1.43 3.58,-0.84 1.34,0.57 1.81,1.73 1.95,3.1 0.26,2.73 -0.55,5.1 -2.26,7.21 -1.17,1.45 -2.35,2.91 -3.42,4.43 -0.94,1.32 -1.4,2.83 -1.3,4.48 0.07,1.26 0.71,2.17 1.94,2.56 0.68,0.21 1.4,0.32 2.11,0.42 5.94,0.82 11.33,-0.77 16.56,-3.51 2.9,-1.52 4.44,-3.49 4,-6.83 -0.11,-0.85 0,-1.73 -0.05,-2.59 -0.3,-5.28 0.66,-10.37 2.86,-15.12 1.75,-3.76 3.97,-7.31 6.02,-10.93 0.27,-0.49 0.69,-0.93 1.12,-1.3 1.77,-1.54 3.95,-1.14 5.09,0.88 0.66,1.18 0.99,2.46 0.5,3.73 -0.84,2.13 -1.52,4.41 -2.81,6.25 -3.72,5.29 -3.13,11.17 -2.78,17.05 0.07,1.14 0.9,1.76 2.03,1.87 2.41,0.23 4.53,-0.62 6.55,-1.78 4.02,-2.32 6.44,-6.08 8.79,-9.88 0.55,-0.9 0.6,-1.91 0.22,-2.91 -0.3,-0.81 -0.6,-1.62 -0.87,-2.44 -1.6,-4.87 -1.09,-9.67 0.65,-14.36 0.49,-1.3 1.34,-2.54 2.27,-3.58 0.98,-1.1 2.34,-1.74 3.9,-1.15 1.54,0.58 2.12,1.89 2.16,3.42 0.05,1.72 -0.11,3.45 -0.04,5.17 0.04,0.93 0.39,1.84 0.68,3.16 1.05,-0.69 1.93,-0.99 2.35,-1.61 1.45,-2.13 2.79,-4.34 4.08,-6.57 1.08,-1.87 1.89,-3.9 3.07,-5.69 1.93,-2.91 4.44,-4.91 8.29,-4.15 0.7,0.14 1.44,0.11 2.15,0.05 3.76,-0.34 5.54,-2.52 5.21,-6.29 -0.13,-1.44 -0.12,-2.88 -0.26,-4.31 -0.52,-5.24 1.06,-9.96 3.57,-14.42 0.68,-1.22 1.64,-2.39 2.74,-3.24 1.82,-1.41 4.03,-0.58 4.85,1.6 0.53,1.41 0.45,2.84 -0.02,4.23 -0.42,1.22 -1.01,2.39 -1.4,3.62 -0.71,2.29 -0.48,4.43 1.17,6.53 2.69,-1.19 4.95,-2.73 7.05,-4.44 6.73,-5.47 9.6,-12.74 9.46,-21.27 -0.04,-2.43 -0.5,-4.85 -0.81,-7.27 z m -105.94,59.2 c -3.38,7.19 -7.53,13.86 -13.26,19.47 -2.03,1.99 -4.26,3.43 -7.18,3.43 -1.78,0 -2.86,0.84 -3.8,2.32 -1.53,2.42 -3.26,4.72 -4.99,7 -1.91,2.52 -3.82,5.01 -5.05,7.98 -0.53,1.3 -1.47,2.47 -2.4,3.54 -0.87,0.99 -2.08,1.61 -3.48,1.18 -1.59,-0.48 -2.17,-1.76 -2.29,-3.3 -0.03,-0.43 0,-0.86 0,-1.3 0.01,-2.36 0.82,-4.55 1.98,-6.52 1.81,-3.09 3.85,-6.05 5.83,-9.03 0.56,-0.84 1.22,-1.6 1.89,-2.35 2.3,-2.6 3.42,-5.61 3.3,-9.08 -0.09,-2.65 0.45,-5.18 1.9,-7.4 0.69,-1.05 1.63,-2.02 2.65,-2.76 1.59,-1.14 3.46,-0.64 4.39,1.08 0.61,1.13 0.97,2.39 1.57,3.54 0.72,1.38 2.05,1.64 3.21,0.64 2.45,-2.08 4.12,-4.77 5.74,-7.49 1.18,-1.97 2.2,-4.05 3.54,-5.9 0.81,-1.11 2.01,-2.05 3.22,-2.73 1.35,-0.76 3.01,-0.03 3.52,1.45 0.36,1.05 0.55,2.23 0.51,3.34 -0.04,0.97 -0.38,1.99 -0.8,2.89 z m 52.59,-36.87 c -0.33,3.72 -1.79,6.99 -5.53,8.55 -1.43,0.6 -3.03,1.02 -4.56,1.07 -2.23,0.09 -3.35,1.16 -4.09,3.11 -0.61,1.6 -1.43,3.13 -2.25,4.64 -1.64,3.05 -3.69,5.82 -6.41,8 -0.99,0.79 -2.12,1.51 -3.31,1.91 -3.14,1.06 -5.41,-0.73 -5.31,-4.46 0.48,-2.95 1.47,-6.1 4.73,-7.79 3.93,-2.04 5.47,-5.29 5.3,-9.52 -0.06,-1.71 -0.31,-3.42 -0.44,-5.13 -0.23,-3.13 -0.52,-6.27 -0.61,-9.41 -0.08,-2.54 0.95,-4.76 2.56,-6.68 1.07,-1.28 2.41,-2.15 4.14,-1.56 1.51,0.51 2.2,1.82 2.38,3.31 0.16,1.28 0.09,2.58 0.16,3.87 0.06,1 0.07,2.02 0.29,2.99 0.64,2.8 2.09,3.87 4.92,3.63 1.14,-0.09 2.27,-0.35 3.41,-0.5 2.99,-0.41 4.89,1.05 4.62,3.97 z m 23.63,2.76 c -1.08,0.38 -2.22,0.77 -3.34,0.79 -2.18,0.06 -3.36,1.32 -4.39,3 -1.27,2.08 -2.62,4.12 -4.02,6.12 -0.66,0.92 -1.44,1.8 -2.32,2.52 -1.03,0.84 -2.28,1.29 -3.59,0.54 -1.37,-0.77 -2.21,-2.04 -1.97,-3.56 0.26,-1.67 0.76,-3.36 1.48,-4.89 0.86,-1.81 2.11,-3.43 3.1,-5.17 1.14,-2 2.26,-4.02 3.26,-6.08 0.49,-1.02 0.86,-2.15 1.03,-3.27 0.49,-3.21 -0.5,-4.86 -3.5,-6.05 -0.53,-0.21 -1.11,-0.29 -1.65,-0.49 -2.43,-0.92 -3.4,-2.39 -3.22,-4.93 0.13,-1.92 0.85,-3.64 1.93,-5.2 1.83,-2.62 3.55,-3.25 6.69,-2.35 5.12,1.46 8.7,4.36 9.2,10.07 0.17,1.97 0.41,3.94 0.64,6.06 0.94,0 1.77,0.02 2.59,-0.01 2.54,-0.1 4.03,1.24 4.15,3.77 0.18,3.6 -2.68,7.95 -6.07,9.13 z"
         id="path62" /><path
         class="st1"
         d="m 573.91,448.05 c 0.18,3.6 -2.68,7.95 -6.07,9.13 -1.08,0.38 -2.22,0.77 -3.34,0.79 -2.18,0.06 -3.36,1.32 -4.39,3 -1.27,2.08 -2.62,4.12 -4.02,6.12 -0.66,0.92 -1.44,1.8 -2.32,2.52 -1.03,0.84 -2.28,1.29 -3.59,0.54 -1.37,-0.77 -2.21,-2.04 -1.97,-3.56 0.26,-1.67 0.76,-3.36 1.48,-4.89 0.86,-1.81 2.11,-3.43 3.1,-5.17 1.14,-2 2.26,-4.02 3.26,-6.08 0.49,-1.02 0.86,-2.15 1.03,-3.27 0.49,-3.21 -0.5,-4.86 -3.5,-6.05 -0.53,-0.21 -1.11,-0.29 -1.65,-0.49 -2.43,-0.92 -3.4,-2.39 -3.22,-4.93 0.13,-1.92 0.85,-3.64 1.93,-5.2 1.83,-2.62 3.55,-3.25 6.69,-2.35 5.12,1.46 8.7,4.36 9.2,10.07 0.17,1.97 0.41,3.94 0.64,6.06 0.94,0 1.77,0.02 2.59,-0.01 2.54,-0.1 4.03,1.24 4.15,3.77 z"
         id="path64" /><path
         class="st1"
         d="m 544.21,454.42 c -0.33,3.72 -1.79,6.99 -5.53,8.55 -1.43,0.6 -3.03,1.02 -4.56,1.07 -2.23,0.09 -3.35,1.16 -4.09,3.11 -0.61,1.6 -1.43,3.13 -2.25,4.64 -1.64,3.05 -3.69,5.82 -6.41,8 -0.99,0.79 -2.12,1.51 -3.31,1.91 -3.14,1.06 -5.41,-0.73 -5.31,-4.46 0.48,-2.95 1.47,-6.1 4.73,-7.79 3.93,-2.04 5.47,-5.29 5.3,-9.52 -0.06,-1.71 -0.31,-3.42 -0.44,-5.13 -0.23,-3.13 -0.52,-6.27 -0.61,-9.41 -0.08,-2.54 0.95,-4.76 2.56,-6.68 1.07,-1.28 2.41,-2.15 4.14,-1.56 1.51,0.51 2.2,1.82 2.38,3.31 0.16,1.28 0.09,2.58 0.16,3.87 0.06,1 0.07,2.02 0.29,2.99 0.64,2.8 2.09,3.87 4.92,3.63 1.14,-0.09 2.27,-0.35 3.41,-0.5 2.99,-0.41 4.89,1.05 4.62,3.97 z"
         id="path66" /><path
         class="st1"
         d="m 492.42,488.4 c -0.04,0.97 -0.38,1.99 -0.8,2.89 -3.38,7.19 -7.53,13.86 -13.26,19.47 -2.03,1.99 -4.26,3.43 -7.18,3.43 -1.78,0 -2.86,0.84 -3.8,2.32 -1.53,2.42 -3.26,4.72 -4.99,7 -1.91,2.52 -3.82,5.01 -5.05,7.98 -0.53,1.3 -1.47,2.47 -2.4,3.54 -0.87,0.99 -2.08,1.61 -3.48,1.18 -1.59,-0.48 -2.17,-1.76 -2.29,-3.3 -0.03,-0.43 0,-0.86 0,-1.3 0.01,-2.36 0.82,-4.55 1.98,-6.52 1.81,-3.09 3.85,-6.05 5.83,-9.03 0.56,-0.84 1.22,-1.6 1.89,-2.35 2.3,-2.6 3.42,-5.61 3.3,-9.08 -0.09,-2.65 0.45,-5.18 1.9,-7.4 0.69,-1.05 1.63,-2.02 2.65,-2.76 1.59,-1.14 3.46,-0.64 4.39,1.08 0.61,1.13 0.97,2.39 1.57,3.54 0.72,1.38 2.05,1.64 3.21,0.64 2.45,-2.08 4.12,-4.77 5.74,-7.49 1.18,-1.97 2.2,-4.05 3.54,-5.9 0.81,-1.11 2.01,-2.05 3.22,-2.73 1.35,-0.76 3.01,-0.03 3.52,1.45 0.36,1.05 0.55,2.23 0.51,3.34 z"
         id="path68" /><path
         class="st0"
         d="m 550.86,568.13 c -2.03,2.03 -3.82,4.32 -6.51,5.57 -0.63,0.3 -1.32,0.49 -2.36,0.87 -0.93,-1.15 -1.64,-2.04 -2.36,-2.91 -4.43,-5.36 -9.9,-8.72 -17.05,-8.72 -4.35,0 -6.92,-2.47 -8.55,-6.11 -2.18,-4.87 -3.42,-10.03 -4.42,-15.28 1.47,-2.08 3.38,-3.12 5.82,-3.33 1.42,-0.12 2.83,-0.45 4.26,-0.59 5.09,-0.5 9.3,-2.82 12.96,-6.24 1.66,-1.56 3.25,-3.19 4.86,-4.78 1.14,0.81 0.67,1.93 0.91,2.84 0.25,0.97 0.39,1.97 0.47,2.97 0.45,5.48 2.13,10.38 6.3,14.23 0.82,0.75 1.53,1.76 1.96,2.78 1.7,4.12 3.21,8.31 4.9,12.43 1,2.41 0.67,4.41 -1.19,6.27 z"
         id="path70" /><path
         class="st0"
         d="m 591.98,482.28 c -0.71,2.18 -1.45,4.37 -2.47,6.42 -5.78,11.57 -12.42,22.64 -20.67,32.64 -1.91,2.32 -4.08,4.44 -6.29,6.47 -1.14,1.05 -2.56,1.85 -3.98,2.51 -2.18,1.01 -3.81,0.51 -5.24,-1.48 -0.57,-0.8 -1.06,-1.74 -1.31,-2.68 -1.46,-5.35 -1.75,-10.75 -0.41,-16.16 0.24,-0.95 0.64,-1.91 1.19,-2.72 2.17,-3.2 4.49,-6.3 6.64,-9.52 1.02,-1.54 2.17,-2.54 4.13,-2.62 3.95,-0.16 7,-2.35 9.86,-4.79 1.19,-1.02 2.3,-2.18 3.25,-3.43 1.87,-2.44 4.15,-4.27 6.85,-5.75 2.26,-1.22 4.27,-2.88 6.4,-4.32 0.55,-0.37 1.16,-0.65 2.02,-1.12 0.84,2.42 0.68,4.52 0.03,6.55 z"
         id="path72" /></g></g></g><g
   inkscape:groupmode="layer"
   id="layer4"
   inkscape:label="align"
   style="display:none"><path
     class="st0"
     d="m 216.49241,73.651995 c -0.0122,0.38114 -0.0936,0.74637 -0.2079,1.10691 -0.38115,1.19776 -1.43562,1.74653 -2.34962,1.80459 -0.17419,0.0112 -0.35024,0.0159 -0.52443,0.0159 -5.10567,9.4e-4 -10.21041,-9.3e-4 -15.31514,0.003 -0.63774,0 -1.26518,-0.0581 -1.86734,-0.27532 -1.44311,-0.52162 -2.3337,-1.54706 -2.70829,-3.02295 -0.12548,-0.49539 -0.17043,-1.00484 -0.17043,-1.5199 0.006,-3.69065 0.003,-7.38131 0.003,-11.07196 0,-3.70471 9.4e-4,-7.40847 -9.3e-4,-11.11224 0,-0.58342 0.0637,-1.15842 0.24161,-1.71188 0.51412,-1.60418 1.61542,-2.56313 3.25145,-2.92742 0.46355,-0.10302 0.9346,-0.10676 1.40565,-0.10676 4.84907,-9.4e-4 9.69815,-9.4e-4 14.54723,-9.4e-4 0.68644,0 1.37381,0 2.06118,9.4e-4 0.0937,0 0.18824,0.005 0.28188,0 0.21539,-0.0112 0.35212,0.0862 0.44483,0.27813 0.24817,0.51132 0.44576,1.04043 0.56751,1.59482 0.17793,0.80724 0.22194,1.62198 0.11425,2.44608 -0.0562,0.43171 -0.14703,0.84657 -0.33245,1.24083 -0.20041,0.42984 -0.51038,0.75574 -0.91026,1.00109 -0.44576,0.27252 -0.92805,0.42423 -1.45247,0.43359 -0.17513,0.003 -0.35025,0.003 -0.52537,0.003 -3.40784,9.4e-4 -6.81568,0 -10.22352,9.4e-4 -0.14796,0 -0.29686,-0.002 -0.44389,0.0131 -0.16482,0.0169 -0.24067,0.0946 -0.26127,0.25753 -0.0131,0.10582 -0.0131,0.21445 -0.0131,0.32215 v 3.87889 c 0,0.0946 -9.4e-4,0.18916 0.009,0.28281 0.0215,0.20603 0.0955,0.27907 0.31091,0.29686 0.14797,0.0112 0.29593,0.007 0.44483,0.007 3.43406,9.3e-4 6.86906,0 10.30405,0 0.1077,0 0.21539,0 0.32309,9.3e-4 0.4364,0.004 0.4776,-0.0581 0.70235,0.44296 0.24349,0.54128 0.44764,1.09848 0.54597,1.68659 0.10863,0.65179 0.16388,1.30545 0.074,1.96848 -0.0506,0.37365 -0.0955,0.74543 -0.21539,1.10597 -0.31746,0.94678 -0.99641,1.47308 -1.94787,1.68285 -0.32964,0.073 -0.6649,0.089 -1.00297,0.089 -2.9499,-0.004 -5.8998,-0.003 -8.8497,-0.002 -0.14797,0 -0.29593,-0.002 -0.44389,0.008 -0.1489,0.0112 -0.21726,0.0796 -0.23974,0.22569 -0.0122,0.0796 -0.014,0.16108 -0.014,0.24162 -9.3e-4,1.56298 -9.3e-4,3.12502 -9.3e-4,4.68706 0,0.0674 9.3e-4,0.13579 0.008,0.20228 0.0225,0.19479 0.0871,0.26128 0.28095,0.27345 0.14796,0.009 0.29592,0.007 0.44482,0.007 h 12.16297 c 0.1208,0 0.24254,0.007 0.36335,0 0.20134,-0.0112 0.33151,0.0833 0.41298,0.26034 0.0281,0.0609 0.0618,0.11987 0.089,0.18074 0.2772,0.61714 0.4954,1.25488 0.58904,1.92446 0.0824,0.58811 0.0553,1.18277 0.0365,1.77556 z"
     id="path1109"
     style="fill:#ff00ff;stroke-width:0.0936477" /></g></svg>
